<?xml version="1.0" encoding="UTF-8"?>
<svg width="32px" height="32px" viewBox="0 0 64 64" version="1.1" xmlns="http://www.w3.org/2000/svg" xmlns:xlink="http://www.w3.org/1999/xlink">
    <g id="64x64-Educación" stroke="none" stroke-width="1" fill="none" fill-rule="evenodd">
        <g id="Cat/Educación" fill="#B52023">
            <circle id="Oval" fill-opacity="0.1" cx="32" cy="32" r="32"></circle>
            <path d="M45.0709818,29.3771636 L38.1357091,25.9095273 C37.7778909,25.7349818 37.3429818,25.8746182 37.1611636,26.2353455 C36.9808,26.5946182 37.1262545,27.0309818 37.4855273,27.2113455 L43.5073455,30.2222545 L32.0004364,36.4360727 L17.3313455,28.5146182 L32.0004364,20.5931636 L46.6695273,28.5146182 L45.0709818,29.3771636 Z M40.0004364,40.5451636 C40.0004364,40.7895273 39.8797091,41.0164364 39.6513455,41.1677091 C34.9938909,44.2746182 28.9764364,44.2673455 24.3233455,41.1546182 C24.1211636,41.0178909 24.0004364,40.7909818 24.0004364,40.5466182 L24.0004364,33.7684364 L31.5829818,37.8629818 C31.6906182,37.9211636 31.8448,37.9502545 32.0004364,37.9502545 C32.1546182,37.9502545 32.3102545,37.9211636 32.4178909,37.8629818 L40.0004364,33.7684364 L40.0004364,40.5451636 Z M48.2549818,27.7175273 L32.4222545,19.1677091 C32.2040727,19.0484364 31.7997091,19.0484364 31.5829818,19.1648 L15.7458909,27.7160727 C15.4549818,27.8731636 15.2746182,28.1771636 15.2731549,28.5117091 C15.2717091,28.8462545 15.4520727,29.1531636 15.7444364,29.3102545 L22.5458909,32.9829818 L22.5458909,40.5466182 C22.5458909,41.2768 22.9080727,41.9560727 23.5146182,42.3633455 C26.0877091,44.0840727 29.0375273,44.9466182 31.9917091,44.9466182 C34.9415273,44.9466182 37.8957091,44.0855273 40.4804364,42.3633455 C41.0913455,41.9575273 41.4549818,41.2782545 41.4549818,40.5451636 L41.4549818,32.9829818 L44.3568,31.4164364 L44.3568,38.4797091 C43.9291636,38.7328 43.6295273,39.1793455 43.6295273,39.7102545 C43.6295273,40.5117091 44.2811636,41.1648 45.0840727,41.1648 C45.8869818,41.1648 46.5386182,40.5117091 46.5386182,39.7102545 C46.5386182,39.1793455 46.2389818,38.7328 45.8113455,38.4797091 L45.8113455,30.6309818 L48.2564364,29.3102545 C48.5488,29.1531636 48.7291636,28.8462545 48.7277178,28.5117091 C48.7262545,28.1771636 48.5458909,27.8731636 48.2549818,27.7175273 L48.2549818,27.7175273 Z" id="Fill-2"></path>
        </g>
    </g>
</svg>