<?xml version="1.0" encoding="UTF-8"?>
<svg width="32px" height="32px" viewBox="0 0 64 64" version="1.1" xmlns="http://www.w3.org/2000/svg" xmlns:xlink="http://www.w3.org/1999/xlink">
    <g id="64x64-Ropa-y-accesorios" stroke="none" stroke-width="1" fill="none" fill-rule="evenodd">
        <g id="Cat/Ropa-y-accesorios" fill="#049D95">
            <path d="M64,32 C64,14.3264 49.6736,0 32,0 C14.3264,0 0,14.3264 0,32 C0,49.672 14.3264,64 32,64 C49.6736,64 64,49.672 64,32" id="Fill-1" fill-opacity="0.1"></path>
            <path d="M43.6861091,30.0106182 L40.8250182,26.7437091 L40.8250182,24.1080727 C40.8250182,23.7066182 40.5006545,23.3808 40.0977455,23.3808 C39.6962909,23.3808 39.3704727,23.7066182 39.3704727,24.1080727 L39.3704727,27.0171636 L39.3704727,34.4513455 L39.3704727,45.4957091 L25.0984727,45.4957091 L25.0984727,34.4513455 L25.0984727,27.0171636 L25.0984727,24.1080727 C25.0984727,23.7066182 24.7726545,23.3808 24.3712,23.3808 C23.9682909,23.3808 23.6439273,23.7066182 23.6439273,24.1080727 L23.6439273,26.7437091 L20.7828364,30.0106182 L17.2177455,27.5524364 L21.3181091,22.1720727 C22.7624727,20.2768 24.9035636,19.0258909 27.2308364,18.6418909 C28.2810182,20.3917091 30.1966545,21.4782545 32.2344727,21.4782545 C34.2722909,21.4782545 36.1879273,20.3917091 37.2366545,18.6418909 C39.5653818,19.0258909 41.7064727,20.2768 43.1508364,22.1720727 L47.2512,27.5524364 L43.6861091,30.0106182 Z M35.5086545,18.5037091 C34.6868364,19.4535273 33.5232,20.0237091 32.2344727,20.0237091 C30.9457455,20.0237091 29.7806545,19.4535273 28.9602909,18.5037091 L35.5086545,18.5037091 Z M48.7857455,27.1640727 L44.3072,21.2891636 C42.2839273,18.6346182 39.0810182,17.0491636 35.7413818,17.0491636 L28.7275636,17.0491636 C25.3879273,17.0491636 22.1850182,18.6346182 20.1617455,21.2891636 L15.6773818,27.1713455 C15.5392,27.3575273 15.4810182,27.5960727 15.5188364,27.8258909 C15.5508364,28.0208 15.7166545,28.2840727 15.8795636,28.3960727 L20.3915636,31.5088 C20.7493818,31.7546182 21.2395636,31.6935273 21.5290182,31.3662545 L23.6439273,28.9517091 L23.6439273,34.4513455 L23.6439273,45.6862545 C23.6439273,46.3829818 24.2112,46.9502545 24.9093818,46.9502545 L39.5610182,46.9502545 C40.2592,46.9502545 40.8250182,46.3829818 40.8250182,45.6862545 L40.8250182,34.4513455 L40.8250182,28.9517091 L42.9399273,31.3662545 C43.2322909,31.6993455 43.7210182,31.7604364 44.0788364,31.5073455 L48.5835636,28.4004364 C48.7770182,28.2680727 48.9108364,28.0615273 48.9501091,27.8302545 C48.9835636,27.6324364 48.9079273,27.3255273 48.7857455,27.1640727 L48.7857455,27.1640727 Z" id="Fill-2"></path>
        </g>
    </g>
</svg>