<?xml version="1.0" encoding="UTF-8"?>
<svg width="32px" height="32px" viewBox="0 0 64 64" version="1.1" xmlns="http://www.w3.org/2000/svg" xmlns:xlink="http://www.w3.org/1999/xlink">
    <g id="64x64-Salud-y-bienestas" stroke="none" stroke-width="1" fill="none" fill-rule="evenodd">
        <g id="Cat/Salud-y-bienestar" fill="#D14384">
            <path d="M64,32 C64,14.3264 49.6736,0 32,0 C14.3264,0 0,14.3264 0,32 C0,49.672 14.3264,64 32,64 C49.6736,64 64,49.672 64,32" id="Fill-1" fill-opacity="0.1"></path>
            <path d="M43.1377455,33.2621091 L31.9595636,44.6264727 L20.8613818,33.2592 C18.2562909,30.6104727 18.2562909,26.2992 20.8642909,23.6475636 C22.1210182,22.3704727 23.7937455,21.6664727 25.5770182,21.6664727 C27.3573818,21.6664727 29.0315636,22.3704727 30.2868364,23.6475636 L31.4810182,24.8635636 C31.6177455,25.0032 31.8053818,25.0802909 32.0002909,25.0802909 C32.1952,25.0802909 32.3813818,25.0032 32.5181091,24.8635636 L33.7137455,23.6475636 C34.9719273,22.3690182 36.6446545,21.6650182 38.4264727,21.6650182 C40.2068364,21.6650182 41.8810182,22.3690182 43.1377455,23.6475636 C45.7457455,26.2992 45.7457455,30.6119273 43.1377455,33.2621091 M44.1748364,22.6279273 C42.6417455,21.0701091 40.6010182,20.2104727 38.4264727,20.2104727 C36.2519273,20.2104727 34.2097455,21.0701091 32.6781091,22.6279273 L32.0002909,23.3159273 L31.3239273,22.6279273 C29.7922909,21.0701091 27.7515636,20.2119273 25.5784727,20.2119273 L25.5770182,20.2119273 C23.4024727,20.2119273 21.3602909,21.0701091 19.8272,22.6279273 C16.6664727,25.8410182 16.6650182,31.0686545 19.8228364,34.2773818 L31.4388364,46.1726545 C31.5755636,46.3137455 31.7617455,46.3922909 31.9566545,46.3922909 L31.9581091,46.3922909 C32.1530182,46.3922909 32.3406545,46.3152 32.4773818,46.1755636 L44.1748364,34.2817455 C47.3355636,31.0701091 47.3355636,25.8410182 44.1748364,22.6279273" id="Fill-2"></path>
        </g>
    </g>
</svg>