<?xml version="1.0" encoding="UTF-8"?>
<svg width="32px" height="32px" viewBox="0 0 64 64" version="1.1" xmlns="http://www.w3.org/2000/svg" xmlns:xlink="http://www.w3.org/1999/xlink">
    <g id="64x64-Viajes" stroke="none" stroke-width="1" fill="none" fill-rule="evenodd">
        <g id="Cat/Viajes" fill="#6AAAE4">
            <path d="M64,32 C64,14.3264 49.6736,0 32,0 C14.3264,0 0,14.3264 0,32 C0,49.672 14.3264,64 32,64 C49.6736,64 64,49.672 64,32" id="Fill-1" fill-opacity="0.12"></path>
            <path d="M36.3636364,14.6356364 C36.7650909,14.6356364 37.0909091,14.9614545 37.0909091,15.3629091 L37.0909091,15.3629091 L37.0909091,23.1825455 L40.7272727,23.1825455 C41.9301818,23.1825455 42.9090909,24.1614545 42.9090909,25.3643636 L42.9090909,25.3643636 L42.9090909,44.2734545 C42.9090909,45.4763636 41.9301818,46.4552727 40.7272727,46.4552727 L40.7272727,46.4552727 L40,46.4552727 L40,47.1825455 C40,48.3854545 39.0210909,49.3643636 37.8181818,49.3643636 C36.6152727,49.3643636 35.6363636,48.3854545 35.6363636,47.1825455 L35.6363636,47.1825455 L35.6363636,46.4552727 L28.3636364,46.4552727 L28.3636364,47.1825455 C28.3636364,48.3854545 27.3847273,49.3643636 26.1818182,49.3643636 C24.9789091,49.3643636 24,48.3854545 24,47.1825455 L24,47.1825455 L24,46.4552727 L23.2727273,46.4552727 C22.0698182,46.4552727 21.0909091,45.4763636 21.0909091,44.2734545 L21.0909091,44.2734545 L21.0909091,25.3643636 C21.0909091,24.1614545 22.0698182,23.1825455 23.2727273,23.1825455 L23.2727273,23.1825455 L26.9090909,23.1825455 L26.9090909,15.3629091 C26.9090909,14.9614545 27.2349091,14.6356364 27.6363636,14.6356364 L27.6363636,14.6356364 Z M26.9090909,46.4552727 L25.4545455,46.4552727 L25.4545455,47.1825455 C25.4545455,47.584 25.7818182,47.9098182 26.1818182,47.9098182 C26.5818182,47.9098182 26.9090909,47.584 26.9090909,47.1825455 L26.9090909,47.1825455 L26.9090909,46.4552727 Z M38.5454545,46.5556364 L37.0909091,46.5556364 L37.0909091,47.1825455 C37.0909091,47.584 37.4181818,47.9098182 37.8181818,47.9098182 C38.2181818,47.9098182 38.5454545,47.584 38.5454545,47.1825455 L38.5454545,47.1825455 L38.5454545,46.5556364 Z M40.7272727,24.6370909 L23.2727273,24.6370909 C22.8727273,24.6370909 22.5454545,24.9629091 22.5454545,25.3643636 L22.5454545,25.3643636 L22.5454545,44.2734545 C22.5454545,44.6749091 22.8727273,45.0007273 23.2727273,45.0007273 L23.2727273,45.0007273 L40.7272727,45.0007273 C41.1272727,45.0007273 41.4545455,44.6749091 41.4545455,44.2734545 L41.4545455,44.2734545 L41.4545455,25.3643636 C41.4545455,24.9629091 41.1272727,24.6370909 40.7272727,24.6370909 L40.7272727,24.6370909 Z M32,28.9012364 C32.4014545,28.9012364 32.7272727,29.2270545 32.7272727,29.6285091 L32.7272727,29.6285091 L32.7272727,40.0096 C32.7272727,40.4110545 32.4014545,40.7368727 32,40.7368727 C31.5985455,40.7368727 31.2727273,40.4110545 31.2727273,40.0096 L31.2727273,40.0096 L31.2727273,29.6285091 C31.2727273,29.2270545 31.5985455,28.9012364 32,28.9012364 Z M36.3636364,28.9012364 C36.7650909,28.9012364 37.0909091,29.2270545 37.0909091,29.6285091 L37.0909091,29.6285091 L37.0909091,40.0096 C37.0909091,40.4110545 36.7650909,40.7368727 36.3636364,40.7368727 C35.9621818,40.7368727 35.6363636,40.4110545 35.6363636,40.0096 L35.6363636,40.0096 L35.6363636,29.6285091 C35.6363636,29.2270545 35.9621818,28.9012364 36.3636364,28.9012364 Z M27.6363636,28.9012364 C28.0378182,28.9012364 28.3636364,29.2270545 28.3636364,29.6285091 L28.3636364,29.6285091 L28.3636364,40.0096 C28.3636364,40.4110545 28.0378182,40.7368727 27.6363636,40.7368727 C27.2349091,40.7368727 26.9090909,40.4110545 26.9090909,40.0096 L26.9090909,40.0096 L26.9090909,29.6285091 C26.9090909,29.2270545 27.2349091,28.9012364 27.6363636,28.9012364 Z M35.6363636,18.9992727 L28.3636364,18.9992727 L28.3636364,23.1825455 L35.6363636,23.1825455 L35.6363636,18.9992727 Z M35.6363636,16.0901818 L28.3636364,16.0901818 L28.3636364,17.5447273 L35.6363636,17.5447273 L35.6363636,16.0901818 Z" id="Combined-Shape"></path>
        </g>
    </g>
</svg>