<svg width="30" height="23" viewBox="0 0 30 23" fill="none" xmlns="http://www.w3.org/2000/svg"  type="image/svg+xml">
<path d="M1.08376 16.317C0.677958 15.8989 0.363888 15.4007 0.161654 14.8543C-0.075788 14.2204 0.0164283 13.8625 0.0233441 12.9306C0.0302599 11.9987 0.0348662 11.6811 0.991551 11.0039C2.88417 9.85131 3.77746 5.75313 10.1094 3.84322C15.6548 2.1719 22.2801 2.96204 24.6003 8.46701C27.3966 15.101 21.2917 21.9251 20.8543 22.3614C19.8607 23.3556 18.0932 22.9654 17.5854 22.6721C17.1941 22.4467 17.3439 21.4681 17.3439 20.6751C17.3439 20.1409 15.4421 21.4019 11.628 20.7662C10.4218 20.5651 10.6443 22.5487 9.73312 22.8C8.58049 23.1176 7.09301 22.9908 7.04287 22.3879C6.99273 21.7851 7.04287 19.8752 6.33919 19.4228C5.711 19.0194 2.99425 18.2753 1.08376 16.317Z" fill="#FFBCBC"/>
<path d="M5.61594 10.832C6.25665 10.832 6.77606 10.3126 6.77606 9.67184C6.77606 9.03112 6.25665 8.51172 5.61594 8.51172C4.97522 8.51172 4.45581 9.03112 4.45581 9.67184C4.45581 10.3126 4.97522 10.832 5.61594 10.832Z" fill="#EC6E6E"/>
<path d="M7.95505 7.91517C7.95505 7.91517 7.65316 7.18731 6.2873 6.75782C4.50665 6.1275 3.76396 3.71659 3.76396 3.71659C3.76396 3.71659 9.53358 4.55284 10.3802 6.14205C9.6735 6.8609 8.85438 7.45979 7.95505 7.91517Z" fill="#EC6E6E"/>
<path d="M10.2278 6.15424C10.2278 6.15424 9.45549 4.99842 6.46646 5.10136C4.88754 5.15594 3.61114 3.7169 3.61114 3.7169C3.61114 3.7169 8.91754 -1.04673 12.7272 4.11887C11.7665 4.62354 10.9166 5.31562 10.2278 6.15424Z" fill="#FBA8A8"/>
<path d="M26.8883 9.74519C26.5394 9.74524 26.1997 9.6331 25.9195 9.42534C25.6275 9.19732 25.415 8.88297 25.3123 8.52707C25.2095 8.17118 25.2217 7.79192 25.3472 7.44339C25.42 7.17787 25.5334 6.92517 25.6832 6.69418C24.7023 6.78219 23.7854 7.21894 23.099 7.92519C23.0244 8.00246 22.9225 8.04742 22.8151 8.05039C22.7078 8.05337 22.6035 8.01414 22.5248 7.94112C22.446 7.8681 22.399 7.7671 22.3939 7.65982C22.3888 7.55254 22.4259 7.44753 22.4973 7.36732C22.5711 7.28779 24.311 5.4453 26.5044 5.96341C27.2847 5.64679 28.1531 5.62263 28.9498 5.8954C29.0024 5.91192 29.0512 5.93889 29.0932 5.97467C29.1351 6.01044 29.1695 6.0543 29.1942 6.10364C29.2189 6.15298 29.2333 6.20678 29.2368 6.26184C29.2402 6.3169 29.2325 6.3721 29.2142 6.42412C29.1958 6.47615 29.1672 6.52394 29.13 6.56467C29.0928 6.60539 29.0477 6.63819 28.9976 6.66113C28.9474 6.68408 28.8931 6.69669 28.838 6.69821C28.7828 6.69973 28.728 6.69011 28.6766 6.66996C28.3577 6.57319 28.0266 6.52235 27.6934 6.51897C28.0801 6.82152 28.3397 7.25773 28.4213 7.74192C28.485 8.06755 28.4555 8.40455 28.3362 8.71417C28.2169 9.0238 28.0127 9.29346 27.747 9.49219C27.4912 9.65762 27.1929 9.74548 26.8883 9.74519ZM26.6284 6.85785C26.3848 7.07158 26.213 7.35509 26.1362 7.66988C26.0601 7.8578 26.0455 8.06498 26.0945 8.26169C26.1435 8.45841 26.2535 8.63455 26.4088 8.76488C26.5361 8.86077 26.6895 8.91584 26.8488 8.92284C27.008 8.92983 27.1657 8.88842 27.3009 8.80406C27.4304 8.69116 27.5274 8.54574 27.5819 8.38284C27.6364 8.21993 27.6464 8.04543 27.611 7.87735C27.5562 7.63376 27.4356 7.4099 27.2623 7.23013C27.089 7.05037 26.8698 6.92159 26.6284 6.85785Z" fill="#EC6E6E"/>
<path d="M21.9112 6.47391C21.0933 6.19998 20.2586 5.97898 19.4123 5.81229C18.5744 5.64804 17.733 5.52069 16.8852 5.43597C16.4605 5.40312 16.0369 5.35298 15.6098 5.34376C15.3966 5.33281 15.1833 5.31379 14.9695 5.30918C14.7557 5.30457 14.5419 5.3034 14.3269 5.29534L14.0047 5.28554L13.6826 5.28959H13.0348C12.6014 5.28959 12.1703 5.31205 11.7266 5.29361C12.145 5.16221 12.5703 5.04868 13.0002 4.95531C13.433 4.88731 13.8647 4.79049 14.3062 4.76455C15.1862 4.67941 16.0723 4.67748 16.9526 4.75879C17.8334 4.85033 18.7024 5.03206 19.5461 5.30111C20.3947 5.55639 21.1943 5.95288 21.9112 6.47391Z" fill="#EC6E6E"/>
</svg>
