<?xml version="1.0" encoding="UTF-8"?>
<!DOCTYPE svg PUBLIC "-//W3C//DTD SVG 1.1//EN" "http://www.w3.org/Graphics/SVG/1.1/DTD/svg11.dtd">
<!-- Creator: CorelDRAW -->
<svg xmlns="http://www.w3.org/2000/svg" xml:space="preserve" width="68px" height="68px" version="1.1" shape-rendering="geometricPrecision" text-rendering="geometricPrecision" image-rendering="optimizeQuality" fill-rule="evenodd" clip-rule="evenodd"
viewBox="0 0 64.453 64.453"
 xmlns:xlink="http://www.w3.org/1999/xlink"
 xmlns:xodm="http://www.corel.com/coreldraw/odm/2003">
 <defs>
    <radialGradient id="id0" gradientUnits="userSpaceOnUse" gradientTransform="matrix(1.25036 -0 -0 1.25038 -8 -13)" cx="30.652" cy="53.04" r="273.831" fx="30.652" fy="53.04">
     <stop offset="0" stop-opacity="1" stop-color="#BF8F68"/>
     <stop offset="1" stop-opacity="1" stop-color="#E0BB95"/>
    </radialGradient>
    <radialGradient id="id1" gradientUnits="userSpaceOnUse" gradientTransform="matrix(1.74584 -0 -0 1.50377 -14 -26)" cx="19.16" cy="50.703" r="126.399" fx="19.16" fy="50.703">
     <stop offset="0" stop-opacity="1" stop-color="#BF8F68"/>
     <stop offset="1" stop-opacity="1" stop-color="#E0BB95"/>
    </radialGradient>
    <radialGradient id="id2" gradientUnits="userSpaceOnUse" gradientTransform="matrix(1.64021 -0 -0 1.64021 -9 -35)" cx="13.595" cy="55.168" r="158.261" fx="13.595" fy="55.168">
     <stop offset="0" stop-opacity="1" stop-color="#BF8F68"/>
     <stop offset="1" stop-opacity="1" stop-color="#E0BB95"/>
    </radialGradient>
    <radialGradient id="id3" gradientUnits="userSpaceOnUse" gradientTransform="matrix(-1.31113 -0.0115052 0.00838116 -0.954199 109 59)" cx="47.308" cy="29.692" r="106.627" fx="47.308" fy="29.692">
     <stop offset="0" stop-opacity="1" stop-color="#E0BB95"/>
     <stop offset="1" stop-opacity="0" stop-color="#BF8F68"/>
    </radialGradient>
    <radialGradient id="id4" gradientUnits="userSpaceOnUse" gradientTransform="matrix(0.7331 -0 -0 0.734905 13 7)" cx="49.286" cy="25.025" r="194.89" fx="49.286" fy="25.025">
     <stop offset="0" stop-opacity="1" stop-color="#E0BB95"/>
     <stop offset="1" stop-opacity="0" stop-color="#BF8F68"/>
    </radialGradient>
 </defs>
 <g id="Capa_x0020_1">
  <metadata id="CorelCorpID_0Corel-Layer"/>
  <circle fill="#4D4D4D" cx="32.226" cy="32.226" r="32.226"/>
  <g id="_587655489344">
   <path fill="#E0BB95" fill-rule="nonzero" d="M48.915 48.071l-7.626 -7.73 4.879 -4.879 6.825 6.929c0.427,0.427 0.427,1.148 0,1.575l-4.078 4.105z"/>
   <path fill="#E0BB95" fill-rule="nonzero" d="M51.394 41.646l-4.265 0.613 1.386 7.678 -0.908 2.852 0.721 0c2.585,0 3.944,-0.906 4.533,-3.545l0.691 -5.411c0.027,-1.2 -0.958,-2.187 -2.158,-2.187z"/>
   <path fill="#E0BB95" fill-rule="nonzero" d="M47.635 23.945l7.037 0 0 -0.08c0,-0.614 -0.479,-1.093 -1.093,-1.093l-5.944 0 0 1.173z"/>
   <path fill="#E0BB95" fill-rule="nonzero" d="M44.33 15.416l3.305 0 0 14.393 -14.982 5.573 0 -8.292c0,-6.451 5.226,-11.674 11.677,-11.674z"/>
   <path fill="url(#id0)" fill-rule="nonzero" d="M35.611 30.797c-7.782,0 -14.101,6.316 -14.101,14.101l0 12.236 20.847 0 5.278 -27.297 -12.024 0.96z"/>
   <path fill="#E0BB95" fill-rule="nonzero" d="M51.18 21.625l0 0.401c0,0.292 -0.025,0.587 -0.053,0.854 -0.027,0.187 -0.055,0.371 -0.107,0.558 -0.347,1.547 -1.28,2.854 -2.532,3.707 -0.107,0.08 -0.214,0.16 -0.347,0.212 -0.319,0.187 -0.666,0.347 -1.012,0.479 -0.454,0.162 -0.961,0.294 -1.467,0.347 -0.24,0.027 -0.454,0.027 -0.694,0.027l-0.399 0c-1.147,0 -2.185,-0.292 -3.118,-0.825 -0.721,-0.427 -1.334,-0.961 -1.841,-1.627 -0.798,-1.04 -1.28,-2.372 -1.28,-3.786l0 -0.4c0,-0.985 0.24,-1.918 0.642,-2.746 0.371,-0.746 0.878,-1.412 1.519,-1.971 0,0 0,0 0.027,0 0.399,-0.346 0.826,-0.613 1.305,-0.853 0.08,-0.027 0.159,-0.082 0.239,-0.107 0.242,-0.107 0.482,-0.215 0.749,-0.294 0.558,-0.16 1.172,-0.267 1.786,-0.267l0.399 0c1.307,0 2.532,0.401 3.519,1.095 0.24,0.159 0.452,0.344 0.667,0.531 0.478,0.427 0.905,0.96 1.224,1.519 0,0.028 0.028,0.028 0.028,0.055 0.052,0.107 0.107,0.212 0.159,0.319 0.215,0.4 0.347,0.854 0.479,1.308 0.028,0.104 0.055,0.184 0.055,0.291 0.028,0.108 0.053,0.24 0.053,0.347 -0.025,0.267 0,0.534 0,0.826z"/>
   <path fill="#E0BB95" fill-rule="nonzero" d="M42.596 18.853l-4.106 0c-0.08,0 -0.132,-0.052 -0.132,-0.132l0 -2.32c0,-2.347 1.893,-4.238 4.238,-4.238 0.08,0 0.132,0.053 0.132,0.132l0 6.426c0,0.08 -0.052,0.132 -0.132,0.132z"/>
   <path fill="#E0BB95" fill-rule="nonzero" d="M48.994 18.853l-4.106 0c-0.079,0 -0.132,-0.052 -0.132,-0.132l0 -2.32c0,-2.347 1.891,-4.238 4.238,-4.238 0.08,0 0.133,0.053 0.133,0.132l0 6.426c0,0.08 -0.053,0.132 -0.133,0.132z"/>
   <path fill="#FADCBD" fill-rule="nonzero" d="M46.355 29.809l0 -5.864 -4.106 0c-2.265,0 -4.106,1.841 -4.106,4.106 0,2.265 1.841,4.106 4.106,4.106 0.267,0 0.482,0.212 0.482,0.479l0 24.473 0.239 0 4.665 -27.3 -1.28 0z"/>
   <path fill="#594539" fill-rule="nonzero" d="M45.714 22.88c0.282,0 0.509,-0.347 0.509,-0.774 0,-0.426 -0.227,-0.773 -0.509,-0.773 -0.279,0 -0.506,0.347 -0.506,0.773 0,0.427 0.227,0.774 0.506,0.774z"/>
   <path fill="#594539" fill-rule="nonzero" d="M49.848 22.88c0.279,0 0.506,-0.347 0.506,-0.774 0,-0.426 -0.227,-0.773 -0.506,-0.773 -0.28,0 -0.507,0.347 -0.507,0.773 0,0.427 0.227,0.774 0.507,0.774z"/>
   <polygon fill="#E0BB95" fill-rule="nonzero" points="41.503,57.134 37.717,57.134 35.504,42.1 39.558,40.608 42.731,42.1 "/>
   <path fill="#E0BB95" fill-rule="nonzero" d="M38.892 53.642l2.958 0c1.786,0 3.253,1.466 3.253,3.252l0 0.24 -6.211 0 0 -3.492z"/>
   <path fill="#FADCBD" fill-rule="nonzero" d="M49.209 29.809l-1.574 0 -5.785 0 0 -5.864 12.822 0 0 0.401c0.027,3.011 -2.452,5.463 -5.463,5.463z"/>
   <path fill="#FADCBD" fill-rule="nonzero" d="M45.742 20.747l-1.12 0c-0.507,0 -0.906,-0.402 -0.906,-0.908l0 -0.132c0,-0.507 0.399,-0.906 0.906,-0.906l1.12 0c0.506,0 0.908,0.399 0.908,0.906l0 0.132c0,0.506 -0.402,0.908 -0.908,0.908z"/>
   <path fill="url(#id1)" fill-rule="nonzero" d="M21.51 44.898c0,0 4.797,-5.919 9.863,-2.16 4.745,3.52 1.574,11.143 1.574,11.143 0,0 2.931,0 3.226,3.228 -2.639,0 -18.901,0 -18.901,0l4.238 -6.107 0 -6.104z"/>
   <path fill="#594539" fill-rule="nonzero" d="M54.699 24.531l-0.107 0c-0.905,0 -1.651,-0.746 -1.651,-1.651l0 -0.108 0.933 0c0.451,0 0.825,0.374 0.825,0.826l0 0.933z"/>
   <path fill="#FADCBD" fill-rule="nonzero" d="M16.364 57.109c3.652,0 6.613,-2.961 6.613,-6.613 0,-3.649 -2.961,-6.61 -6.613,-6.61 -3.65,0 -6.611,2.961 -6.611,6.61 0,3.652 2.961,6.613 6.611,6.613z"/>
   <path fill="url(#id2)" fill-rule="nonzero" d="M17.297 57.134c3.195,0 5.785,-2.589 5.785,-5.785 0,-3.195 -2.59,-5.785 -5.785,-5.785 -3.193,0 -5.785,2.59 -5.785,5.785 0,3.196 2.592,5.785 5.785,5.785z"/>
   <path fill="#E0BB95" fill-rule="nonzero" d="M21.323 47.243c0,0 2.986,4.186 0.399,7.786 -2.133,2.933 -6.985,2.771 -8.102,-0.295 -1.2,-3.25 1.013,-5.091 1.679,-5.65 0,0 -0.295,1.492 1.279,1.706 1.066,0.133 2.931,-1.733 0.4,-4.293l4.345 0.746z"/>
   <polygon fill="url(#id3)" fill-rule="nonzero" points="39.478,33.783 46.994,33.783 47.635,29.809 39.478,29.809 "/>
   <path fill="url(#id4)" fill-rule="nonzero" d="M49.209 29.809l-1.574 0 -5.785 0 0 -3.624 12.822 0c0.027,0 -2.452,3.624 -5.463,3.624z"/>
   <path fill="#FADCBD" fill-rule="nonzero" d="M51.581 20.747l-1.12 0c-0.506,0 -0.908,-0.402 -0.908,-0.908l0 -0.132c0,-0.507 0.402,-0.906 0.908,-0.906l1.12 0c0.507,0 0.906,0.399 0.906,0.906l0 0.132c0,0.506 -0.399,0.908 -0.906,0.908z"/>
   <path fill="#FADCBD" fill-rule="nonzero" d="M50.434 27.624c2.292,0 3.519,-0.534 3.519,-0.534l0.427 -0.905 -9.863 0c0,0 1.279,1.439 5.917,1.439z"/>
  </g>
 </g>
</svg>
