<?xml version="1.0" encoding="UTF-8"?>
<!DOCTYPE svg PUBLIC "-//W3C//DTD SVG 1.1//EN" "http://www.w3.org/Graphics/SVG/1.1/DTD/svg11.dtd">
<!-- Creator: CorelDRAW -->
<svg xmlns="http://www.w3.org/2000/svg" xml:space="preserve" width="24px" height="24px" version="1.1" shape-rendering="geometricPrecision" text-rendering="geometricPrecision" image-rendering="optimizeQuality" fill-rule="evenodd" clip-rule="evenodd"
viewBox="0 0 24.024 24.049"
 xmlns:xlink="http://www.w3.org/1999/xlink"
 xmlns:xodm="http://www.corel.com/coreldraw/odm/2003">
 <g id="Capa_x0020_1">
  <metadata id="CorelCorpID_0Corel-Layer"/>
  <path fill="white" d="M19.979 15.96c1.116,0 2.127,0.453 2.859,1.185 0.732,0.731 1.186,1.742 1.186,2.859 0,1.115 -0.454,2.126 -1.185,2.859 -0.733,0.732 -1.745,1.186 -2.86,1.186 -1.117,0 -2.128,-0.454 -2.859,-1.186 -0.732,-0.732 -1.184,-1.743 -1.184,-2.859 0,-1.117 0.452,-2.128 1.184,-2.859 0.731,-0.732 1.742,-1.185 2.859,-1.185zm-7.212 2.245c0.185,-0.142 0.413,-0.197 0.629,-0.169 0.22,0.029 0.427,0.141 0.571,0.327l1.001 1.303c0.13,0.163 0.196,0.349 0.197,0.542 0.002,0.198 -0.065,0.387 -0.2,0.552l-1.018 1.325c-0.246,0.3 -0.58,0.363 -0.88,0.279 -0.105,-0.03 -0.207,-0.082 -0.296,-0.15l-0.004 -0.002c-0.087,-0.067 -0.163,-0.152 -0.22,-0.247 -0.155,-0.261 -0.185,-0.588 0.019,-0.895l-7.246 0.011c-1.051,-0.011 -2,-0.443 -2.684,-1.134l-0.034 -0.038c-0.664,-0.69 -1.073,-1.626 -1.073,-2.655 0,-1.053 0.429,-2.006 1.113,-2.698l0.037 -0.035c0.689,-0.678 1.627,-1.097 2.646,-1.097 0.407,0 0.675,0.234 0.797,0.533 0.043,0.107 0.065,0.221 0.065,0.332 0,0.11 -0.021,0.223 -0.065,0.332 -0.118,0.296 -0.383,0.528 -0.79,0.532 -0.589,0.007 -1.085,0.242 -1.442,0.599 -0.203,0.203 -0.364,0.447 -0.471,0.711 -0.109,0.269 -0.166,0.556 -0.163,0.841 0.006,0.501 0.199,1.013 0.619,1.433 0.193,0.193 0.42,0.348 0.668,0.453 0.24,0.102 0.505,0.16 0.782,0.164l7.241 -0.002c-0.113,-0.176 -0.155,-0.381 -0.128,-0.577l0.005 -0.035c0.036,-0.206 0.146,-0.399 0.324,-0.535zm-7.831 -11.04c0.627,0 1.194,-0.253 1.604,-0.664 0.411,-0.41 0.665,-0.978 0.665,-1.604 0,-0.627 -0.254,-1.194 -0.665,-1.605 -0.41,-0.41 -0.977,-0.664 -1.604,-0.664 -0.626,0 -1.194,0.254 -1.604,0.664 -0.411,0.411 -0.664,0.978 -0.664,1.605 0,0.626 0.253,1.194 0.664,1.604 0.41,0.411 0.978,0.664 1.604,0.664zm-0.712 5.315c-0.286,-0.391 -0.629,-0.825 -0.98,-1.268 -0.691,-0.874 -1.413,-1.787 -1.891,-2.617l-0.265 -0.447c-0.589,-0.986 -1.088,-1.821 -1.088,-3.205 0,-1.362 0.554,-2.597 1.448,-3.492l0.004 -0.004c0.895,-0.894 2.13,-1.447 3.49,-1.447 1.365,0 2.601,0.554 3.495,1.448l0.032 0.035c0.875,0.892 1.416,2.114 1.416,3.461l-0.004 0.072c-0.014,0.53 -0.105,1.069 -0.265,1.575 -0.164,0.512 -0.397,0.991 -0.692,1.394 -0.753,1.221 -1.496,2.186 -2.294,3.224 -0.321,0.417 -0.653,0.848 -0.995,1.308 -0.063,0.087 -0.141,0.158 -0.225,0.212 -0.151,0.098 -0.324,0.142 -0.496,0.136l-0.004 0c-0.17,-0.007 -0.339,-0.064 -0.48,-0.168 -0.078,-0.056 -0.148,-0.13 -0.206,-0.217zm4.505 -0.068c0.216,-0.029 0.446,0.025 0.633,0.168 0.189,0.146 0.3,0.353 0.329,0.571 0.025,0.198 -0.017,0.402 -0.129,0.576l7.241 0c0.277,-0.002 0.541,-0.06 0.782,-0.161 0.248,-0.105 0.475,-0.26 0.668,-0.453 0.42,-0.42 0.613,-0.932 0.618,-1.434 0.004,-0.284 -0.053,-0.572 -0.162,-0.84 -0.108,-0.264 -0.268,-0.508 -0.472,-0.712 -0.357,-0.357 -0.852,-0.591 -1.441,-0.598 -0.408,-0.004 -0.673,-0.238 -0.791,-0.533 -0.044,-0.109 -0.065,-0.223 -0.065,-0.332 0,-0.096 0.017,-0.194 0.05,-0.288l0.016 -0.046c0.121,-0.297 0.39,-0.531 0.797,-0.531 1.019,0 1.957,0.419 2.646,1.097l0.037 0.035c0.685,0.692 1.113,1.645 1.113,2.698 0,1.029 -0.408,1.966 -1.073,2.656l-0.034 0.037c-0.684,0.692 -1.633,1.124 -2.684,1.134l-7.246 -0.01c0.204,0.307 0.174,0.634 0.019,0.894 -0.059,0.098 -0.135,0.183 -0.22,0.248l-0.005 0.002c-0.088,0.067 -0.19,0.119 -0.295,0.149 -0.307,0.087 -0.654,0.018 -0.903,-0.306l-0.995 -1.297c-0.112,-0.137 -0.177,-0.292 -0.195,-0.454l-0.007 -0.096c0,-0.196 0.068,-0.383 0.203,-0.55l0.994 -1.295c0.136,-0.177 0.33,-0.288 0.536,-0.324l0.035 -0.005zm4.346 -6.511c0.189,-0.145 0.417,-0.198 0.634,-0.17l0.035 0.006c0.206,0.035 0.4,0.146 0.536,0.323l0.994 1.295c0.135,0.166 0.204,0.354 0.204,0.551l-0.008 0.096c-0.018,0.162 -0.084,0.316 -0.195,0.453l-0.995 1.297c-0.248,0.324 -0.596,0.393 -0.902,0.307 -0.106,-0.03 -0.208,-0.082 -0.297,-0.149l-0.003 -0.004c-0.085,-0.064 -0.162,-0.149 -0.22,-0.247 -0.156,-0.259 -0.185,-0.587 0.018,-0.893l-2.552 0.006c-0.042,0 -0.083,-0.004 -0.123,-0.012 -0.166,-0.034 -0.322,-0.101 -0.45,-0.21 -0.181,-0.153 -0.286,-0.356 -0.286,-0.62 0,-0.227 0.088,-0.43 0.23,-0.587l0.012 -0.013c0.133,-0.139 0.313,-0.238 0.508,-0.275 0.047,-0.009 0.094,-0.012 0.14,-0.01l2.522 0.003c-0.113,-0.175 -0.155,-0.379 -0.13,-0.575 0.029,-0.221 0.141,-0.428 0.328,-0.572zm8.378 12.564l0.185 0.201c0.052,0.059 0.075,0.133 0.072,0.206 -0.003,0.073 -0.034,0.144 -0.092,0.198l-1.025 0.936c0,0.167 -0.069,0.321 -0.179,0.432 -0.112,0.112 -0.267,0.18 -0.435,0.18 -0.168,0 -0.323,-0.068 -0.434,-0.18 -0.111,-0.11 -0.18,-0.264 -0.18,-0.434 0,-0.111 0.029,-0.215 0.08,-0.305 0.031,-0.05 0.067,-0.097 0.109,-0.137l0 -1.618c0,-0.078 0.032,-0.151 0.082,-0.203l0.007 -0.006c0.051,-0.05 0.124,-0.083 0.202,-0.083l0.269 0c0.08,0 0.151,0.033 0.202,0.083l0.006 0.006c0.051,0.052 0.083,0.125 0.083,0.203l0 1.082 0.638 -0.582c0.059,-0.052 0.136,-0.078 0.209,-0.075 0.074,0.004 0.148,0.037 0.201,0.096zm0.539 -0.474c-0.514,-0.515 -1.227,-0.834 -2.013,-0.834 -0.786,0 -1.498,0.319 -2.013,0.834 -0.515,0.514 -0.834,1.227 -0.834,2.013 0,0.786 0.319,1.499 0.834,2.013 0.515,0.515 1.227,0.834 2.013,0.834 0.786,0 1.499,-0.319 2.013,-0.834 0.515,-0.514 0.834,-1.227 0.834,-2.013 0,-0.786 -0.319,-1.499 -0.834,-2.013z"/>
 </g>
</svg>
