<svg xmlns="http://www.w3.org/2000/svg" fill="none" viewBox="0 0 20 20">
  <path fill="#fff" fill-rule="evenodd" d="M.76031.7554c.97387-.97387 2.55282-.97387 3.5267 0l2.73613 2.73613c.93912-.30763 1.93918-.47404 2.97668-.47404 4.76598 0 8.60028 3.46168 9.66978 7.89381.323 1.3388-.5004 2.6861-1.8393 3.0091-.1075.026-.2151.0445-.3223.056l1.7415 1.7415c.9739.9739.9739 2.5528 0 3.5267s-2.5528.9739-3.5267 0l-2.9903-2.9904c-.8041.4627-1.7373.7283-2.7325.7283-2.49888 0-4.60756-1.6707-5.26998-3.9561-.58135.7563-1.57256 1.1427-2.56006.9059h-.00001C.83068 13.6111.00539 12.265.32662 10.9257.748 9.16887 1.59615 7.57419 2.76165 6.28343L.76031 4.28209c-.97387-.97387-.97387-2.55282 0-3.5267Z" clip-rule="evenodd"/>
  <path fill="#000" fill-rule="evenodd" d="M2.85844 2.14645c-.19527-.19527-.51185-.19527-.70711 0-.19526.19526-.19526.51184 0 .7071l3.50594 3.50594C3.98645 7.50957 2.74909 9.30194 2.24718 11.3945c-.06441.2685.10107.5384.36959.6028.26853.0644.53842-.1011.60283-.3696.46282-1.92957 1.61921-3.54809 3.15902-4.54686L7.95618 8.6584c-.88199.63549-1.45619 1.6715-1.45619 2.8416 0 1.933 1.56701 3.5 3.5 3.5 1.17011 0 2.20611-.5742 2.84161-1.4562l4.3097 4.3098c.1953.1952.5119.1952.7071 0 .1953-.1953.1953-.5119 0-.7072L2.85844 2.14645ZM12.1213 12.8235 8.67647 9.37869C7.96995 9.82043 7.49999 10.6053 7.49999 11.5c0 1.3807 1.11929 2.5 2.5 2.5.89471 0 1.67961-.47 2.12131-1.1765Zm-1.7564-4.80471 3.1163 3.11631c-.17-1.64157-1.4747-2.94627-3.1163-3.11631ZM7.70149 5.35542l.81393.81393C8.99444 6.05836 9.49114 6 9.99978 6c3.23832 0 5.99302 2.36564 6.77762 5.6173.0648.2684.3349.4335.6034.3687.2684-.0647.4335-.3348.3687-.6033C16.869 7.73345 13.7509 5 9.99978 5c-.80008 0-1.57137.12435-2.29829.35542Z" clip-rule="evenodd"/>
</svg>
