<svg xmlns="http://www.w3.org/2000/svg" fill="none" viewBox="0 0 20 20">
  <path fill="#fff" fill-rule="evenodd" d="M4.71674 13.034c-.58281.7582-1.5765 1.1456-2.56647.9082-1.34263-.3221-2.17-1.6716-1.84796-3.0142C1.36973 6.47773 5.21663 3 9.99975 3c4.77795 0 8.62185 3.47035 9.69395 7.9136.3239 1.3422-.5016 2.6928-1.8438 3.0167-.9883.2384-1.9811-.1462-2.5652-.9014C14.6223 15.3226 12.507 17 9.99996 17c-2.50517 0-4.61914-1.6749-5.28322-3.966Z" clip-rule="evenodd"/>
  <path fill="#000" fill-rule="evenodd" d="M9.99978 6C6.75802 6 4.0008 8.37073 3.2196 11.6277c-.06441.2685-.3343.434-.60283.3696-.26852-.0644-.434-.3343-.36959-.6028C3.12389 7.7393 6.24465 5 9.99978 5c3.75112 0 6.86922 2.73345 7.74972 6.3827.0648.2685-.1003.5386-.3687.6034-.2685.0647-.5386-.1004-.6034-.3688C15.9928 8.36564 13.2381 6 9.99978 6Zm.00021 3c-1.38071 0-2.5 1.1193-2.5 2.5s1.11929 2.5 2.5 2.5S12.5 12.8807 12.5 11.5 11.3807 9 9.99999 9Zm-3.5 2.5c0-1.933 1.56701-3.5 3.5-3.5C11.933 8 13.5 9.567 13.5 11.5S11.933 15 9.99999 15c-1.93299 0-3.5-1.567-3.5-3.5Z" clip-rule="evenodd"/>
</svg>
