<svg width="279" height="208" viewBox="0 0 279 208" fill="none" xmlns="http://www.w3.org/2000/svg">
<path d="M274.845 139.79H238.622C236.62 139.79 235 138.18 235 136.19V78.6C235 76.61 236.62 75 238.622 75H274.845C276.847 75 278.467 76.61 278.467 78.6V136.19C278.467 138.18 276.847 139.79 274.845 139.79Z" fill="#A7DAD9"/>
<path d="M261.915 104.31H251.562C247.567 104.31 244.317 101.09 244.317 97.11V89.91C244.317 85.94 247.557 82.71 251.562 82.71H261.915C265.91 82.71 269.16 85.93 269.16 89.91V97.11C269.15 101.09 265.91 104.31 261.915 104.31Z" fill="white"/>
<path d="M261.734 99.4904H261.04C260.376 99.4904 259.833 98.9504 259.833 98.2904V88.3504C259.833 87.6904 260.376 87.1504 261.04 87.1504H261.734C262.398 87.1504 262.942 87.6904 262.942 88.3504V98.2904C262.942 98.9504 262.408 99.4904 261.734 99.4904Z" fill="#32B2A1"/>
<path d="M252.427 99.4904H251.733C251.069 99.4904 250.525 98.9504 250.525 98.2904V88.3504C250.525 87.6904 251.069 87.1504 251.733 87.1504H252.427C253.091 87.1504 253.635 87.6904 253.635 88.3504V98.2904C253.635 98.9504 253.091 99.4904 252.427 99.4904Z" fill="#32B2A1"/>
<path d="M261.915 132.08H251.562C247.567 132.08 244.317 128.86 244.317 124.88V117.68C244.317 113.71 247.557 110.48 251.562 110.48H261.915C265.91 110.48 269.16 113.7 269.16 117.68V124.88C269.15 128.86 265.91 132.08 261.915 132.08Z" fill="white"/>
<path d="M261.734 127.25H261.04C260.376 127.25 259.833 126.71 259.833 126.05V116.11C259.833 115.45 260.376 114.91 261.04 114.91H261.734C262.398 114.91 262.942 115.45 262.942 116.11V126.05C262.942 126.72 262.408 127.25 261.734 127.25Z" fill="#32B2A1"/>
<path d="M252.427 127.25H251.733C251.069 127.25 250.525 126.71 250.525 126.05V116.11C250.525 115.45 251.069 114.91 251.733 114.91H252.427C253.091 114.91 253.635 115.45 253.635 116.11V126.05C253.635 126.72 253.091 127.25 252.427 127.25Z" fill="#32B2A1"/>
<path d="M185.494 207H159.506C158.124 207 157 205.879 157 204.5C157 203.121 158.124 202 159.506 202H185.494C186.876 202 188 203.121 188 204.5C188 205.879 186.876 207 185.494 207Z" fill="#32B2A1"/>
<path d="M180.362 165.383L145.248 129.777L167.716 107.309L199.148 139.231C201.112 141.196 201.112 144.511 199.148 146.475L180.362 165.383Z" fill="#E0BB95"/>
<path d="M191.781 135.793L172.137 138.617L178.521 173.977L174.347 187.115H177.662C189.571 187.115 195.833 182.94 198.534 170.785L201.726 145.861C201.849 140.336 197.306 135.793 191.781 135.793Z" fill="#E0BB95"/>
<path d="M174.468 54.2685H206.881V53.9002C206.881 51.0762 204.671 48.8662 201.847 48.8662H174.468V54.2685Z" fill="#E0BB95"/>
<path d="M159.245 14.9795H174.47V81.2801L105.468 106.941V68.7567C105.468 39.0442 129.533 14.9795 159.245 14.9795Z" fill="#E0BB95"/>
<path d="M119.096 85.8224C83.2441 85.8224 54.1455 114.921 54.1455 150.772V207.128H150.159L174.469 81.4023L119.096 85.8224Z" fill="url(#paint0_radial_390_8680)"/>
<path d="M190.798 43.5862V45.4279C190.798 46.7784 190.675 48.129 190.553 49.3568C190.43 50.2163 190.307 51.0757 190.061 51.9352C188.465 59.0563 184.168 65.0725 178.397 69.0014C177.906 69.3698 177.415 69.7381 176.801 69.9837C175.328 70.8431 173.732 71.5798 172.136 72.1937C170.048 72.9304 167.716 73.5443 165.383 73.7898C164.278 73.9126 163.296 73.9126 162.191 73.9126H160.349C155.069 73.9126 150.281 72.562 145.984 70.1064C142.669 68.142 139.845 65.6864 137.512 62.6169C133.829 57.8285 131.619 51.6896 131.619 45.1823V43.3406C131.619 38.7978 132.724 34.5005 134.565 30.6944C136.284 27.2566 138.617 24.1871 141.564 21.6088C141.564 21.6088 141.564 21.6088 141.687 21.6088C143.528 20.0126 145.493 18.7848 147.703 17.6798C148.071 17.557 148.439 17.3115 148.808 17.1887C149.913 16.6976 151.018 16.2065 152.246 15.8381C154.824 15.1015 157.648 14.6104 160.472 14.6104H162.313C168.33 14.6104 173.977 16.452 178.52 19.6443C179.625 20.381 180.607 21.2404 181.59 22.0999C183.8 24.0643 185.764 26.5199 187.238 29.0983C187.238 29.221 187.36 29.221 187.36 29.3438C187.606 29.8349 187.851 30.3261 188.097 30.8172C189.079 32.6589 189.693 34.7461 190.307 36.8333C190.43 37.3245 190.553 37.6928 190.553 38.1839C190.675 38.675 190.798 39.2889 190.798 39.78C190.675 41.0078 190.798 42.2356 190.798 43.5862Z" fill="#E0BB95"/>
<path d="M151.264 30.8175H132.356C131.987 30.8175 131.742 30.572 131.742 30.2036V19.5219C131.742 8.71731 140.459 0 151.264 0C151.632 0 151.877 0.245558 151.877 0.613895V30.2036C151.877 30.572 151.632 30.8175 151.264 30.8175Z" fill="#E0BB95"/>
<path d="M180.73 30.8175H161.822C161.454 30.8175 161.208 30.572 161.208 30.2036V19.5219C161.208 8.71731 169.925 0 180.73 0C181.098 0 181.344 0.245558 181.344 0.613895V30.2036C181.344 30.572 181.098 30.8175 180.73 30.8175Z" fill="#E0BB95"/>
<path d="M168.576 81.2799V54.2686H149.668C139.232 54.2686 130.76 62.7403 130.76 73.1765C130.76 83.6127 139.232 92.0845 149.668 92.0845C150.896 92.0845 151.878 93.0667 151.878 94.2945V207.006H152.983L174.469 81.2799H168.576Z" fill="#FADCBD"/>
<path d="M165.629 49.3575C166.918 49.3575 167.962 47.7634 167.962 45.7969C167.962 43.8305 166.918 42.2363 165.629 42.2363C164.341 42.2363 163.296 43.8305 163.296 45.7969C163.296 47.7634 164.341 49.3575 165.629 49.3575Z" fill="#594539"/>
<path d="M184.659 49.3575C185.948 49.3575 186.992 47.7634 186.992 45.7969C186.992 43.8305 185.948 42.2363 184.659 42.2363C183.371 42.2363 182.327 43.8305 182.327 45.7969C182.327 47.7634 183.371 49.3575 184.659 49.3575Z" fill="#594539"/>
<path d="M146.23 207.129H128.795L118.604 137.881L137.267 131.006L151.878 137.881L146.23 207.129Z" fill="#E0BB95"/>
<path d="M134.197 191.044H147.826C156.052 191.044 162.805 197.797 162.805 206.023V207.128H134.197V191.044Z" fill="#E0BB95"/>
<path d="M181.714 81.2799H174.47H147.827V54.2686H206.883V56.1102C207.006 69.9843 195.588 81.2799 181.714 81.2799Z" fill="#FADCBD"/>
<path d="M165.752 39.5342H160.595C158.263 39.5342 156.421 37.6925 156.421 35.3597V34.7458C156.421 32.413 158.263 30.5713 160.595 30.5713H165.752C168.085 30.5713 169.927 32.413 169.927 34.7458V35.3597C169.927 37.6925 168.085 39.5342 165.752 39.5342Z" fill="#FADCBD"/>
<path d="M54.1454 150.772C54.1454 150.772 76.2456 123.515 99.5736 140.827C121.428 157.034 106.818 192.149 106.818 192.149C106.818 192.149 120.323 192.149 121.674 207.005C109.519 207.005 34.6235 207.005 34.6235 207.005L54.1454 178.889V150.772Z" fill="url(#paint1_radial_390_8680)"/>
<path d="M207.006 56.9696H206.515C202.34 56.9696 198.902 53.5318 198.902 49.3573V48.8662H203.2C205.287 48.8662 207.006 50.5851 207.006 52.6724V56.9696Z" fill="#594539"/>
<path d="M30.4492 207.006C47.2658 207.006 60.8984 193.373 60.8984 176.557C60.8984 159.74 47.2658 146.107 30.4492 146.107C13.6326 146.107 0 159.74 0 176.557C0 193.373 13.6326 207.006 30.4492 207.006Z" fill="#FADCBD"/>
<path d="M34.7461 207.128C49.4606 207.128 61.3891 195.199 61.3891 180.485C61.3891 165.77 49.4606 153.842 34.7461 153.842C20.0315 153.842 8.10303 165.77 8.10303 180.485C8.10303 195.199 20.0315 207.128 34.7461 207.128Z" fill="url(#paint2_radial_390_8680)"/>
<path d="M53.2855 161.576C53.2855 161.576 67.0367 180.853 55.1272 197.428C45.3049 210.934 22.9591 210.197 17.8024 196.077C12.2773 181.098 22.468 172.627 25.5374 170.048C25.5374 170.048 24.1869 176.924 31.4308 177.906C36.342 178.52 44.9365 169.925 33.2725 158.139L53.2855 161.576Z" fill="#E0BB95"/>
<path d="M136.898 99.5743H171.522L174.469 81.2803H136.898V99.5743Z" fill="url(#paint3_radial_390_8680)"/>
<path d="M181.714 81.28H174.47H147.827V64.582H206.883C207.006 64.582 195.588 81.28 181.714 81.28Z" fill="url(#paint4_radial_390_8680)"/>
<path d="M192.64 39.5342H187.483C185.15 39.5342 183.309 37.6925 183.309 35.3597V34.7458C183.309 32.413 185.15 30.5713 187.483 30.5713H192.64C194.973 30.5713 196.814 32.413 196.814 34.7458V35.3597C196.814 37.6925 194.973 39.5342 192.64 39.5342Z" fill="#FADCBD"/>
<path d="M203.234 207H182.571C181.169 207 180.028 205.867 180.028 204.474C180.028 203.08 181.169 201.947 182.571 201.947H203.234C210.771 201.947 216.905 196.543 216.905 189.054V188.874C216.905 181.385 210.771 175.29 203.234 175.29C179.948 175.29 161 156.462 161 133.323V94.625C161 80.4992 172.572 69 186.788 69C201.004 69 212.577 80.4891 212.577 94.625V99.9786C212.577 101.372 211.436 102.505 210.034 102.505C208.632 102.505 207.492 101.372 207.492 99.9786V94.625C207.492 83.2862 198.209 74.0628 186.798 74.0628C175.387 74.0628 166.105 83.2862 166.105 94.625V133.323C166.105 153.675 182.763 170.227 203.244 170.227C213.586 170.227 222 178.588 222 188.864V189.044C221.99 199.331 213.575 207 203.234 207Z" fill="#32B2A1"/>
<path d="M209.095 98.2298L210.856 98.2398C217.728 98.2898 223.252 103.86 223.202 110.69L223.132 120.02C223.132 120.71 222.558 121.26 221.874 121.26L197.746 121.09C197.051 121.09 196.498 120.52 196.498 119.84L196.568 110.51C196.619 103.67 202.223 98.1798 209.095 98.2298Z" fill="#32B2A1"/>
<path d="M215.817 133.559H216.048C216.964 133.569 217.708 132.829 217.718 131.919L217.799 121.219L214.247 121.189L214.167 131.889C214.167 132.819 214.901 133.559 215.817 133.559Z" fill="#B4B0AB"/>
<path d="M203.39 133.479H203.622C204.537 133.489 205.282 132.749 205.292 131.839L205.373 121.139L201.821 121.109L201.74 131.809C201.74 132.729 202.475 133.469 203.39 133.479Z" fill="#B4B0AB"/>
<path d="M187.36 71.2121C197.919 71.2121 203.567 68.7565 203.567 68.7565L205.532 64.582H160.104C160.104 64.582 165.997 71.2121 187.36 71.2121Z" fill="#FADCBD"/>
<defs>
<radialGradient id="paint0_radial_390_8680" cx="0" cy="0" r="1" gradientUnits="userSpaceOnUse" gradientTransform="translate(95.8669 188.484) scale(51.8923)">
<stop stop-color="#BF8F68"/>
<stop offset="1" stop-color="#E0BB95"/>
</radialGradient>
<radialGradient id="paint1_radial_390_8680" cx="0" cy="0" r="1" gradientUnits="userSpaceOnUse" gradientTransform="translate(42.9817 173.06) scale(33.4456)">
<stop stop-color="#BF8F68"/>
<stop offset="1" stop-color="#E0BB95"/>
</radialGradient>
<radialGradient id="paint2_radial_390_8680" cx="0" cy="0" r="1" gradientUnits="userSpaceOnUse" gradientTransform="translate(17.4088 198.393) scale(39.3422)">
<stop stop-color="#BF8F68"/>
<stop offset="1" stop-color="#E0BB95"/>
</radialGradient>
<radialGradient id="paint3_radial_390_8680" cx="0" cy="0" r="1" gradientUnits="userSpaceOnUse" gradientTransform="translate(173.057 80.627) rotate(-179.497) scale(21.1884 15.4273)">
<stop offset="0.00031407" stop-color="#E0BB95"/>
<stop offset="1" stop-color="#BF8F68" stop-opacity="0"/>
</radialGradient>
<radialGradient id="paint4_radial_390_8680" cx="0" cy="0" r="1" gradientUnits="userSpaceOnUse" gradientTransform="translate(182.395 59.1566) scale(21.7016)">
<stop offset="0.00031407" stop-color="#E0BB95"/>
<stop offset="1" stop-color="#BF8F68" stop-opacity="0"/>
</radialGradient>
</defs>
</svg>
