<svg width="43" height="43" viewBox="0 0 43 43" fill="none" xmlns="http://www.w3.org/2000/svg" type="image/svg+xml">
    <path d="M21.3347 42.6693C33.1175 42.6693 42.6693 33.1175 42.6693 21.3347C42.6693 9.55185 33.1175 0 21.3347 0C9.55185 0 0 9.55185 0 21.3347C0 33.1175 9.55185 42.6693 21.3347 42.6693Z" fill="#FFCD00"/>
    <path d="M33.9496 20.623C33.9496 22.1183 33.7445 23.5578 33.3615 24.912C32.9559 26.3551 32.3488 27.6997 31.5793 28.9033C31.1808 29.5282 30.7374 30.114 30.2547 30.657C27.9721 33.2254 24.818 34.8132 21.3342 34.8132C17.114 34.8132 13.3788 32.4831 11.0891 28.9033C10.3195 27.6997 9.71243 26.3551 9.30689 24.912C8.92389 23.5578 8.71875 22.1183 8.71875 20.623H33.9496Z" fill="#F0F0DC"/>
    <path d="M18.9389 15.3329H15.3816C15.3816 14.1052 14.3827 13.1064 13.1549 13.1064C11.9272 13.1064 10.9284 14.1052 10.9284 15.3329H7.37109C7.37109 12.1437 9.96568 9.54907 13.1549 9.54907C16.3442 9.54907 18.9389 12.1437 18.9389 15.3329Z" fill="#0F191E"/>
    <path d="M35.2983 15.3329H31.741C31.741 14.1052 30.7422 13.1064 29.5144 13.1064C28.2867 13.1064 27.2878 14.1052 27.2878 15.3329H23.7305C23.7305 12.1437 26.3251 9.54907 29.5143 9.54907C32.7036 9.54895 35.2983 12.1437 35.2983 15.3329Z" fill="#0F191E"/>
</svg>
