<?xml version="1.0" encoding="UTF-8"?>
<svg width="32px" height="32px" viewBox="0 0 64 64" version="1.1" xmlns="http://www.w3.org/2000/svg" xmlns:xlink="http://www.w3.org/1999/xlink" type="image/svg+xml">
    <g>
        <g fill="#FD9500">
            <path d="M64,32 C64,14.3264 49.6736,0 32,0 C14.3264,0 0,14.3264 0,32 C0,49.672 14.3264,64 32,64 C49.6736,64 64,49.672 64,32" id="Fill-1" fill-opacity="0.1"></path>
            <path d="M47.2727273,21.0909091 C48.4756364,21.0909091 49.4545455,22.0698182 49.4545455,23.2727273 L49.4545455,23.2727273 L49.4545455,40.7272727 C49.4545455,41.9301818 48.4756364,42.9090909 47.2727273,42.9090909 L47.2727273,42.9090909 L16.7272727,42.9090909 C15.5243636,42.9090909 14.5454545,41.9301818 14.5454545,40.7272727 L14.5454545,40.7272727 L14.5454545,23.2727273 C14.5454545,22.0698182 15.5243636,21.0909091 16.7272727,21.0909091 L16.7272727,21.0909091 Z M20.3636364,22.5454545 L16.7272727,22.5454545 C16.3272727,22.5454545 16,22.8712727 16,23.2727273 L16,23.2727273 L16,40.7272727 C16,41.1287273 16.3272727,41.4545455 16.7272727,41.4545455 L16.7272727,41.4545455 L20.3636364,41.4545455 L20.3636364,39.2727273 C20.3636364,38.8712727 20.6894545,38.5454545 21.0909091,38.5454545 C21.4923636,38.5454545 21.8181818,38.8712727 21.8181818,39.2727273 L21.8181818,39.2727273 L21.8181818,41.4545455 L47.2727273,41.4545455 C47.6727273,41.4545455 48,41.1287273 48,40.7272727 L48,40.7272727 L48,23.2727273 C48,22.8712727 47.6727273,22.5454545 47.2727273,22.5454545 L47.2727273,22.5454545 L21.8181818,22.5454545 L21.8181818,24.7272727 C21.8181818,25.1287273 21.4923636,25.4545455 21.0909091,25.4545455 C20.6894545,25.4545455 20.3636364,25.1287273 20.3636364,24.7272727 L20.3636364,24.7272727 L20.3636364,22.5454545 Z M34.2171636,25.4321455 C34.6549818,25.4321455 35.0448,25.6779636 35.2382545,26.0706909 L35.2382545,26.0706909 L36.4658909,28.5594182 L39.3211636,29.0336 C39.7546182,29.0976 40.1066182,29.3957818 40.2418909,29.8117818 C40.3757091,30.2277818 40.2651636,30.6743273 39.9509818,30.9797818 L39.9509818,30.9797818 L37.9626182,32.9172364 L38.3931636,35.7797818 C38.4673455,36.2088727 38.2942545,36.6365091 37.9393455,36.8954182 C37.7400727,37.0394182 37.5058909,37.1136 37.2702545,37.1136 C37.0884364,37.1136 36.9066182,37.0699636 36.7378909,36.9812364 L36.7378909,36.9812364 L34.2142545,35.6546909 L31.6920727,36.9812364 C31.3066182,37.1877818 30.8426182,37.1514182 30.4920727,36.8954182 C30.1371636,36.6379636 29.9626182,36.2117818 30.0353455,35.7812364 L30.0353455,35.7812364 L30.5051636,33.0423273 L28.4789818,30.9797818 C28.1648,30.6743273 28.0542545,30.2263273 28.1895273,29.8117818 C28.3233455,29.3943273 28.6768,29.0976 29.1088,29.0336 L29.1088,29.0336 L31.8593455,28.6336 L33.1917091,26.0677818 C33.3851636,25.6750545 33.7764364,25.4321455 34.2142545,25.4321455 L34.2142545,25.4321455 Z M21.0909091,32.7272727 C21.4923636,32.7272727 21.8181818,33.0530909 21.8181818,33.4545455 L21.8181818,33.4545455 L21.8181818,36.3636364 C21.8181818,36.7650909 21.4923636,37.0909091 21.0909091,37.0909091 C20.6894545,37.0909091 20.3636364,36.7650909 20.3636364,36.3636364 L20.3636364,36.3636364 L20.3636364,33.4545455 C20.3636364,33.0530909 20.6894545,32.7272727 21.0909091,32.7272727 Z M34.2142545,27.2823273 L33.2673455,29.2037818 C33.0346182,29.6736 32.5851636,29.9994182 32.0688,30.0736 L32.0688,30.0736 L29.9495273,30.3819636 L31.4797091,31.8757818 C31.8564364,32.2423273 32.0280727,32.7703273 31.9408,33.2881455 L31.9408,33.2881455 L31.5771636,35.3986909 L33.6658909,34.3005091 C34.0077091,34.1216 34.4222545,34.1230545 34.7626182,34.3005091 L34.7626182,34.3005091 L36.8528,35.3986909 L36.4906182,33.2866909 C36.4018909,32.7688727 36.5720727,32.2408727 36.9488,31.8757818 L36.9488,31.8757818 L38.4818909,30.3819636 L36.3626182,30.0736 C35.8418909,29.9979636 35.3953455,29.6721455 35.1611636,29.2037818 L35.1611636,29.2037818 L34.2142545,27.2823273 Z M21.0909091,26.9090909 C21.4923636,26.9090909 21.8181818,27.2349091 21.8181818,27.6363636 L21.8181818,27.6363636 L21.8181818,30.5454545 C21.8181818,30.9469091 21.4923636,31.2727273 21.0909091,31.2727273 C20.6894545,31.2727273 20.3636364,30.9469091 20.3636364,30.5454545 L20.3636364,30.5454545 L20.3636364,27.6363636 C20.3636364,27.2349091 20.6894545,26.9090909 21.0909091,26.9090909 Z" id="Combined-Shape"></path>
        </g>
    </g>
</svg>