<?xml version="1.0" encoding="UTF-8"?>
<svg width="32px" height="32px" viewBox="0 0 64 64" version="1.1" xmlns="http://www.w3.org/2000/svg" xmlns:xlink="http://www.w3.org/1999/xlink" type="image/svg+xml">
    <g>
        <g fill="#D13137">
            <path d="M64,32.0002909 C64,14.3266909 49.6736,0.000290909091 32,0.000290909091 C14.3264,0.000290909091 0,14.3266909 0,32.0002909 C0,49.6722909 14.3264,64.0002909 32,64.0002909 C49.6736,64.0002909 64,49.6722909 64,32.0002909" id="Fill-1" fill-opacity="0.1"></path>
            <path d="M39.2261818,17.8818909 C40.4087273,17.8818909 41.4821818,18.5349818 42.0232727,19.5866182 L42.0232727,19.5866182 L46.0829091,27.9429818 C47.5781818,28.1829818 48.7272727,29.4731636 48.7272727,31.0368 L48.7272727,31.0368 L48.7272727,38.6760727 C48.7272727,40.3269818 47.4443636,41.6709818 45.8254545,41.7960727 L45.8254545,41.7960727 L45.8254545,43.5589818 C45.8254545,44.9698909 44.6778182,46.1175273 43.2654545,46.1175273 C41.8530909,46.1175273 40.7054545,44.9698909 40.7054545,43.5589818 L40.7054545,43.5589818 L40.7054545,41.8208 L23.3396364,41.8208 L23.3396364,43.5589818 C23.3396364,44.9698909 22.192,46.1175273 20.7810909,46.1175273 C19.3687273,46.1175273 18.2210909,44.9698909 18.2210909,43.5589818 L18.2210909,43.5589818 L18.2210909,41.8004364 C16.5789091,41.6986182 15.2727273,40.3429818 15.2727273,38.6760727 L15.2727273,38.6760727 L15.2727273,31.0368 C15.2727273,29.4731636 16.4232727,28.1829818 17.92,27.9429818 L17.92,27.9429818 L22.0130909,19.5997091 C22.5614545,18.5349818 23.632,17.8818909 24.816,17.8818909 L24.816,17.8818909 Z M44.3709091,41.8208 L42.16,41.8208 L42.16,43.5589818 C42.16,44.1669818 42.656,44.6629818 43.2654545,44.6629818 C43.8749091,44.6629818 44.3709091,44.1669818 44.3709091,43.5589818 L44.3709091,43.5589818 L44.3709091,41.8208 Z M21.8850909,41.8208 L19.6756364,41.8208 L19.6756364,43.5589818 C19.6756364,44.1669818 20.1716364,44.6629818 20.7810909,44.6629818 C21.3890909,44.6629818 21.8850909,44.1669818 21.8850909,43.5589818 L21.8850909,43.5589818 L21.8850909,41.8208 Z M39.2261818,19.3364364 L24.816,19.3364364 C24.1803636,19.3364364 23.6043636,19.6884364 23.312,20.2528 L23.312,20.2528 L19.0996364,28.8448 C19.0036364,29.1342545 18.7403636,29.3466182 18.4174545,29.3466182 C17.4850909,29.3466182 16.7272727,30.1044364 16.7272727,31.0368 L16.7272727,31.0368 L16.7272727,38.6760727 C16.7272727,39.6084364 17.4850909,40.3662545 18.4174545,40.3662545 L18.4174545,40.3662545 L45.5825455,40.3662545 C46.5149091,40.3662545 47.2727273,39.6084364 47.2727273,38.6760727 L47.2727273,38.6760727 L47.2727273,31.0368 C47.2727273,30.1044364 46.5149091,29.3466182 45.5825455,29.3466182 C45.2581818,29.3466182 44.9949091,29.1313455 44.9003636,28.8404364 L44.9003636,28.8404364 L40.7214545,20.2382545 C40.4392727,19.6884364 39.8618182,19.3364364 39.2261818,19.3364364 L39.2261818,19.3364364 Z M21.2727273,30.1290182 C22.8712727,30.1290182 24.1716364,31.4308364 24.1716364,33.0293818 C24.1716364,34.6279273 22.8712727,35.9282909 21.2727273,35.9282909 C19.6741818,35.9282909 18.3738182,34.6279273 18.3738182,33.0293818 C18.3738182,31.4308364 19.6741818,30.1290182 21.2727273,30.1290182 Z M42.3210182,30.1290182 C43.9195636,30.1290182 45.2199273,31.4308364 45.2199273,33.0293818 C45.2199273,34.6279273 43.9195636,35.9282909 42.3210182,35.9282909 C40.7224727,35.9282909 39.4221091,34.6279273 39.4221091,33.0293818 C39.4221091,31.4308364 40.7224727,30.1290182 42.3210182,30.1290182 Z M21.2727273,31.5835636 C20.4756364,31.5835636 19.8283636,32.2322909 19.8283636,33.0293818 C19.8283636,33.8264727 20.4756364,34.4737455 21.2727273,34.4737455 C22.0698182,34.4737455 22.7170909,33.8264727 22.7170909,33.0293818 C22.7170909,32.2322909 22.0698182,31.5835636 21.2727273,31.5835636 Z M42.3210182,31.5835636 C41.5239273,31.5835636 40.8766545,32.2322909 40.8766545,33.0293818 C40.8766545,33.8264727 41.5239273,34.4737455 42.3210182,34.4737455 C43.1181091,34.4737455 43.7653818,33.8264727 43.7653818,33.0293818 C43.7653818,32.2322909 43.1181091,31.5835636 42.3210182,31.5835636 Z M39.5006545,20.6398545 C39.7944727,20.6398545 40.0592,20.8173091 40.1712,21.0893091 L40.1712,21.0893091 L42.9217455,27.7264 C43.0148364,27.9504 42.9901091,28.2064 42.8548364,28.4085818 C42.7195636,28.6107636 42.4926545,28.7314909 42.2497455,28.7314909 L42.2497455,28.7314909 L21.9181091,28.7314909 C21.6722909,28.7314909 21.4424727,28.6093091 21.3101091,28.4027636 C21.1748364,28.1976727 21.1530182,27.9387636 21.2519273,27.7133091 L21.2519273,27.7133091 L24.1479273,21.0762182 C24.2628364,20.8114909 24.5246545,20.6398545 24.8141091,20.6398545 L24.8141091,20.6398545 Z M39.0148364,22.0944 L25.2897455,22.0944 L23.0279273,27.2769455 L41.1617455,27.2769455 L39.0148364,22.0944 Z" id="Combined-Shape"></path>
        </g>
    </g>
</svg>