<svg width="92" height="92" viewBox="0 0 92 92" fill="none" xmlns="http://www.w3.org/2000/svg" type="image/svg+xml">
<circle cx="46" cy="46" r="45.5" stroke="#05BE50"/>
<path d="M46 86C68.0914 86 86 68.0914 86 46C86 23.9086 68.0914 6 46 6C23.9086 6 6 23.9086 6 46C6 68.0914 23.9086 86 46 86Z" fill="#82DFA7"/>
<rect x="25" y="18" width="42" height="56" rx="5" fill="white"/>
<path d="M60.878 71.6916H31.122C28.8549 71.6916 27 69.8367 27 67.5696V24.5996C27 22.3325 28.8549 20.4775 31.122 20.4775H60.878C63.1451 20.4775 65 22.3325 65 24.5996V67.5696C65 69.8367 63.1451 71.6916 60.878 71.6916Z" fill="#7F9BD2"/>
<path d="M47.8759 65.7135H44.1229C43.2793 65.7135 42.5953 65.0297 42.5953 64.1859V60.433C42.5953 59.5894 43.2791 58.9054 44.1229 58.9054H47.8759C48.7195 58.9054 49.4035 59.5892 49.4035 60.433V64.1859C49.4035 65.0297 48.7196 65.7135 47.8759 65.7135Z" fill="#F4F1F1"/>
<path d="M65 24.5996V67.5696C65 69.8367 63.1451 71.6917 60.878 71.6917H46V20.4776H60.878C63.1451 20.4776 65 22.3325 65 24.5996Z" fill="#0039A6"/>
<path d="M36.9935 44.2783H33.2406C32.397 44.2783 31.713 43.5944 31.713 42.7507V38.9977C31.713 38.1541 32.3968 37.4701 33.2406 37.4701H36.9935C37.8371 37.4701 38.5211 38.154 38.5211 38.9977V42.7507C38.5211 43.5944 37.8371 44.2783 36.9935 44.2783Z" fill="#F4F1F1"/>
<path d="M47.8768 44.2783H44.1238C43.2802 44.2783 42.5962 43.5944 42.5962 42.7507V38.9977C42.5962 38.1541 43.2801 37.4701 44.1238 37.4701H47.8768C48.7204 37.4701 49.4044 38.154 49.4044 38.9977V42.7507C49.4044 43.5944 48.7205 44.2783 47.8768 44.2783Z" fill="#F4F1F1"/>
<path d="M58.7607 44.2783H55.0077C54.1641 44.2783 53.4801 43.5944 53.4801 42.7507V38.9977C53.4801 38.1541 54.164 37.4701 55.0077 37.4701H58.7607C59.6043 37.4701 60.2883 38.154 60.2883 38.9977V42.7507C60.2882 43.5944 59.6043 44.2783 58.7607 44.2783Z" fill="#E7DFDD"/>
<path d="M36.993 54.9959H33.24C32.3964 54.9959 31.7124 54.312 31.7124 53.4683V49.7153C31.7124 48.8717 32.3963 48.1877 33.24 48.1877H36.993C37.8366 48.1877 38.5206 48.8716 38.5206 49.7153V53.4683C38.5206 54.312 37.8366 54.9959 36.993 54.9959Z" fill="#F4F1F1"/>
<path d="M47.8761 54.9959H44.1231C43.2795 54.9959 42.5955 54.312 42.5955 53.4683V49.7153C42.5955 48.8717 43.2794 48.1877 44.1231 48.1877H47.8761C48.7197 48.1877 49.4037 48.8716 49.4037 49.7153V53.4683C49.4037 54.312 48.7198 54.9959 47.8761 54.9959Z" fill="#F4F1F1"/>
<path d="M49.4048 60.433V64.1867C49.4048 65.0291 48.7208 65.7131 47.8771 65.7131H46.0002V58.9053H47.8771C48.7208 58.9053 49.4048 59.5893 49.4048 60.433Z" fill="#E7DFDD"/>
<path d="M49.4048 38.9972V42.7508C49.4048 43.5945 48.7208 44.2785 47.8771 44.2785H46.0002V37.4707H47.8771C48.7208 37.4707 49.4048 38.1547 49.4048 38.9972Z" fill="#E7DFDD"/>
<path d="M49.4048 49.7157V53.4681C49.4048 54.3118 48.7208 54.9958 47.8771 54.9958H46.0002V48.188H47.8771C48.7208 48.188 49.4048 48.872 49.4048 49.7157Z" fill="#E7DFDD"/>
<path d="M58.7601 54.9959H55.0071C54.1635 54.9959 53.4795 54.312 53.4795 53.4683V49.7153C53.4795 48.8717 54.1634 48.1877 55.0071 48.1877H58.7601C59.6037 48.1877 60.2877 48.8716 60.2877 49.7153V53.4683C60.2875 54.312 59.6037 54.9959 58.7601 54.9959Z" fill="#E7DFDD"/>
<path d="M36.9938 65.7135H33.2408C32.3972 65.7135 31.7132 65.0296 31.7132 64.1859V60.4329C31.7132 59.5893 32.3971 58.9053 33.2408 58.9053H36.9938C37.8374 58.9053 38.5214 59.5891 38.5214 60.4329V64.1859C38.5214 65.0296 37.8374 65.7135 36.9938 65.7135Z" fill="#F4F1F1"/>
<path d="M58.7609 65.7135H55.0079C54.1643 65.7135 53.4803 65.0296 53.4803 64.1859V60.4329C53.4803 59.5893 54.1642 58.9053 55.0079 58.9053H58.7609C59.6045 58.9053 60.2885 59.5891 60.2885 60.4329V64.1859C60.2884 65.0296 59.6045 65.7135 58.7609 65.7135Z" fill="#82DFA7"/>
<path d="M30.9932 25.59H61.0068V33.5198H30.9932V25.59Z" fill="#82DFA7"/>
<path d="M46.0001 25.5901H61.0068V33.5199H46.0001V25.5901Z" fill="#05BE50"/>
<circle cx="73.5" cy="73.5" r="14.5" fill="white"/>
<circle cx="73.5" cy="73.5" r="12.5" fill="#0F191E" fill-opacity="0.2"/>
<path d="M75.0009 69.107L67.8089 76.2995C67.7727 76.3358 67.7466 76.3816 67.7342 76.4309L66.937 79.6305C66.9132 79.7268 66.9415 79.8292 67.0118 79.8995C67.0649 79.9527 67.1374 79.9821 67.2115 79.9821C67.2343 79.9821 67.2575 79.9793 67.2801 79.9736L70.4797 79.1764C70.5296 79.1639 70.5749 79.1379 70.6111 79.1017L77.8036 71.9098L75.0009 69.107Z" fill="#0F191E" fill-opacity="0.2"/>
<path d="M79.5857 68.1264L78.7851 67.3258C78.25 66.7907 77.3175 66.7912 76.783 67.3258L75.8024 68.3065L78.605 71.1091L79.5857 70.1284C79.853 69.8613 80.0002 69.5057 80.0002 69.1275C80.0002 68.7492 79.853 68.3936 79.5857 68.1264Z" fill="#0F191E" fill-opacity="0.2"/>
<circle cx="73.5" cy="73.5" r="14.5" fill="white"/>
<circle cx="73.5" cy="73.5" r="12.5" fill="#0039A6"/>
<path opacity="0.3" d="M63.2444 70.16C64.2114 67.0413 66.333 65.2509 67.2731 64.529C69.6667 63.2765 70.4964 64.529 70.8993 65.3953C71.3022 66.2616 70.4964 67.1279 68.4819 68.8605C66.4673 70.5931 67.2733 72.7588 66.4675 73.6251C65.6617 74.4914 62.0357 74.0583 63.2444 70.16Z" fill="white"/>
<path opacity="0.3" d="M79.8325 82.2558C78.3378 83.7558 76.5799 84.1451 75.8225 84.2766C74.0705 84.275 73.9712 83.3058 74.0007 82.6868C74.0302 82.0679 74.7539 81.8131 76.4329 81.4247C78.1118 81.0363 78.3011 79.5496 79.0249 79.2948C79.7486 79.0399 81.7008 80.3808 79.8325 82.2558Z" fill="white"/>
<ellipse opacity="0.5" cx="68.362" cy="66.4042" rx="1.78725" ry="1.34043" transform="rotate(-32.1232 68.362 66.4042)" fill="white"/>
<path d="M75.0009 69.107L67.8089 76.2995C67.7727 76.3358 67.7466 76.3816 67.7342 76.4309L66.937 79.6305C66.9132 79.7268 66.9415 79.8292 67.0118 79.8995C67.0649 79.9527 67.1374 79.9821 67.2115 79.9821C67.2343 79.9821 67.2575 79.9793 67.2801 79.9736L70.4797 79.1764C70.5296 79.1639 70.5749 79.1379 70.6111 79.1017L77.8036 71.9098L75.0009 69.107Z" fill="white"/>
<path d="M79.5857 68.1264L78.7851 67.3258C78.25 66.7907 77.3175 66.7912 76.783 67.3258L75.8024 68.3065L78.605 71.1091L79.5857 70.1284C79.853 69.8613 80.0002 69.5057 80.0002 69.1275C80.0002 68.7492 79.853 68.3936 79.5857 68.1264Z" fill="white"/>
</svg>
