<?xml version="1.0" encoding="UTF-8"?>
<!DOCTYPE svg PUBLIC "-//W3C//DTD SVG 1.1//EN" "http://www.w3.org/Graphics/SVG/1.1/DTD/svg11.dtd">
<!-- Creator: CorelDRAW -->
<svg xmlns="http://www.w3.org/2000/svg" xml:space="preserve" width="144px" height="144px" version="1.1" shape-rendering="geometricPrecision" text-rendering="geometricPrecision" image-rendering="optimizeQuality" fill-rule="evenodd" clip-rule="evenodd"
viewBox="0 0 21.92 21.92"
 xmlns:xlink="http://www.w3.org/1999/xlink"
 xmlns:xodm="http://www.corel.com/coreldraw/odm/2003">
 <defs>
    <linearGradient id="id0" gradientUnits="userSpaceOnUse" x1="1.82" y1="16.56" x2="17.78" y2="9.13">
     <stop offset="0" stop-opacity="1" stop-color="#0039A6"/>
     <stop offset="1" stop-opacity="1" stop-color="#009FA3"/>
    </linearGradient>
    <linearGradient id="id1" gradientUnits="userSpaceOnUse" x1="20.9" y1="6.45" x2="4.19" y2="13.38">
     <stop offset="0" stop-opacity="1" stop-color="#05BE50"/>
     <stop offset="1" stop-opacity="1" stop-color="#01469A"/>
    </linearGradient>
    <linearGradient id="id2" gradientUnits="userSpaceOnUse" x1="5.96" y1="1.41" x2="12.77" y2="17.76">
     <stop offset="0" stop-opacity="1" stop-color="#009FA3"/>
     <stop offset="1" stop-opacity="1" stop-color="#05BE50"/>
    </linearGradient>
    <linearGradient id="id3" gradientUnits="userSpaceOnUse" x1="7.55" y1="4.97" x2="15.34" y2="20.81">
     <stop offset="0" stop-opacity="1" stop-color="#0075CF"/>
     <stop offset="1" stop-opacity="1" stop-color="#0039A6"/>
    </linearGradient>
 </defs>
 <g id="Capa_x0020_1">
  <metadata id="CorelCorpID_0Corel-Layer"/>
  <rect fill="none" width="21.92" height="21.92"/>
  <g id="_587264850080">
   <path fill="url(#id0)" d="M14.74 3.58c-1.59,-1.56 -3.69,-2.5 -5.99,-2.5 -0.96,0 -1.88,0.16 -2.75,0.47 -0.9,0.31 -1.74,0.78 -2.49,1.37 -1.1,1.02 -1.99,2.26 -2.6,3.66 -0.58,1.34 -0.91,2.82 -0.91,4.38 0,1.41 0.27,2.76 0.75,4 0.33,0.84 0.76,1.62 1.27,2.35 -0.23,-0.43 -0.44,-0.88 -0.6,-1.34 -0.31,-0.89 -0.48,-1.83 -0.48,-2.8 0,-2.34 0.96,-4.47 2.54,-6.08 1.6,-1.64 3.82,-2.74 6.33,-3.01l0 0c0.19,-0.03 0.38,-0.05 0.57,-0.07 0.19,-0.01 0.39,-0.02 0.58,-0.02 1.72,0 3.29,0.62 4.5,1.65 0.89,0.75 1.59,1.72 2.01,2.83 -0.45,-1.92 -1.42,-3.61 -2.73,-4.89z"/>
   <path fill="url(#id1)" d="M7.18 18.34c1.59,1.56 3.69,2.5 5.99,2.5 0.96,0 1.89,-0.16 2.75,-0.47 0.9,-0.31 1.74,-0.78 2.49,-1.37 1.1,-1.02 1.99,-2.26 2.6,-3.65 0.59,-1.35 0.91,-2.83 0.91,-4.39 0,-1.41 -0.26,-2.76 -0.75,-3.99 -0.33,-0.84 -0.76,-1.63 -1.27,-2.36 0.24,0.43 0.44,0.88 0.6,1.35 0.31,0.88 0.48,1.82 0.48,2.79 0,2.34 -0.96,4.47 -2.54,6.09 -1.59,1.63 -3.82,2.74 -6.33,3 -0.19,0.03 -0.38,0.05 -0.57,0.07 -0.09,0.01 -0.19,0.01 -0.28,0.02l-0.1 0.01 0.03 -0.01c-0.08,0 -0.15,0 -0.23,0 -1.71,0 -3.28,-0.62 -4.5,-1.65 -0.89,-0.75 -1.59,-1.72 -2.01,-2.83 0.45,1.92 1.42,3.62 2.73,4.89z"/>
   <path fill="url(#id2)" d="M18.34 14.74c1.56,-1.59 2.5,-3.69 2.5,-5.99 0,-0.96 -0.16,-1.88 -0.47,-2.75 -0.31,-0.9 -0.78,-1.74 -1.37,-2.49 -1.02,-1.1 -2.26,-1.99 -3.65,-2.6 -1.35,-0.58 -2.83,-0.91 -4.39,-0.91 -1.41,0 -2.76,0.27 -3.99,0.75 -0.84,0.33 -1.63,0.76 -2.36,1.27 0.43,-0.23 0.88,-0.44 1.35,-0.6 0.88,-0.31 1.82,-0.48 2.79,-0.48 2.34,0 4.47,0.96 6.09,2.54 1.63,1.6 2.74,3.82 3,6.33 0.03,0.19 0.05,0.38 0.07,0.57 0.01,0.1 0.01,0.19 0.02,0.28l0.03 0.32 -0.03 -0.12 0 0.1c0,1.72 -0.62,3.29 -1.65,4.5 -0.75,0.89 -1.72,1.59 -2.83,2.01 1.92,-0.45 3.62,-1.42 4.89,-2.73z"/>
   <path fill="url(#id3)" d="M3.58 7.18c-1.56,1.59 -2.5,3.69 -2.5,5.99 0,0.96 0.16,1.88 0.47,2.75 0.31,0.9 0.78,1.74 1.37,2.49 1.02,1.1 2.26,1.99 3.66,2.6 1.34,0.59 2.82,0.91 4.38,0.91 1.41,0 2.76,-0.26 4,-0.75 0.84,-0.33 1.62,-0.76 2.35,-1.27 -0.43,0.24 -0.88,0.44 -1.34,0.6 -0.89,0.31 -1.83,0.48 -2.8,0.48 -2.34,0 -4.47,-0.96 -6.08,-2.54 -1.64,-1.59 -2.74,-3.82 -3.01,-6.33 -0.03,-0.19 -0.05,-0.38 -0.07,-0.57 0,-0.09 -0.01,-0.19 -0.01,-0.28l-0.04 -0.32 0.03 0.12 0 -0.1c0,-1.71 0.62,-3.29 1.65,-4.5 0.75,-0.89 1.72,-1.59 2.83,-2.01 -1.92,0.45 -3.61,1.42 -4.89,2.73z"/>
  </g>
 </g>
</svg>
