<?xml version="1.0" encoding="UTF-8"?>
<!DOCTYPE svg PUBLIC "-//W3C//DTD SVG 1.1//EN" "http://www.w3.org/Graphics/SVG/1.1/DTD/svg11.dtd">
<!-- Creator: CorelDRAW -->
<svg xmlns="http://www.w3.org/2000/svg" xml:space="preserve" width="377px" height="377px" version="1.1" shape-rendering="geometricPrecision" text-rendering="geometricPrecision" image-rendering="optimizeQuality" fill-rule="evenodd" clip-rule="evenodd"
viewBox="0 0 31.8 31.8"
 xmlns:xlink="http://www.w3.org/1999/xlink"
 xmlns:xodm="http://www.corel.com/coreldraw/odm/2003">
 <defs>
    <linearGradient id="id0" gradientUnits="userSpaceOnUse" x1="2.64" y1="24.02" x2="25.79" y2="13.25">
     <stop offset="0" stop-opacity="1" stop-color="#0039A6"/>
     <stop offset="1" stop-opacity="1" stop-color="#009FA3"/>
    </linearGradient>
    <linearGradient id="id1" gradientUnits="userSpaceOnUse" x1="30.31" y1="9.36" x2="6.07" y2="19.41">
     <stop offset="0" stop-opacity="1" stop-color="#05BE50"/>
     <stop offset="1" stop-opacity="1" stop-color="#01469A"/>
    </linearGradient>
    <linearGradient id="id2" gradientUnits="userSpaceOnUse" x1="8.64" y1="2.04" x2="18.52" y2="25.76">
     <stop offset="0" stop-opacity="1" stop-color="#009FA3"/>
     <stop offset="1" stop-opacity="1" stop-color="#05BE50"/>
    </linearGradient>
    <linearGradient id="id3" gradientUnits="userSpaceOnUse" x1="10.95" y1="7.21" x2="22.26" y2="30.19">
     <stop offset="0" stop-opacity="1" stop-color="#0075CF"/>
     <stop offset="1" stop-opacity="1" stop-color="#0039A6"/>
    </linearGradient>
 </defs>
 <g id="Capa_x0020_1">
  <metadata id="CorelCorpID_0Corel-Layer"/>
  <g id="_584911617568">
   <path fill="url(#id0)" d="M21.38 5.19c-2.3,-2.26 -5.35,-3.63 -8.68,-3.63 -1.4,0 -2.74,0.24 -4,0.68 -1.3,0.46 -2.52,1.14 -3.61,2 -1.59,1.48 -2.88,3.28 -3.77,5.3 -0.85,1.95 -1.32,4.1 -1.32,6.36 0,2.04 0.39,4 1.09,5.79 0.48,1.22 1.1,2.37 1.85,3.42 -0.35,-0.63 -0.65,-1.28 -0.88,-1.95 -0.45,-1.28 -0.69,-2.64 -0.69,-4.06 0,-3.39 1.39,-6.48 3.68,-8.82 2.31,-2.37 5.54,-3.97 9.18,-4.35l0 0c0.28,-0.05 0.55,-0.09 0.83,-0.11 0.28,-0.02 0.56,-0.03 0.84,-0.03 2.49,0 4.77,0.9 6.53,2.39 1.29,1.09 2.3,2.5 2.91,4.1 -0.65,-2.78 -2.06,-5.24 -3.96,-7.09z"/>
   <path fill="url(#id1)" d="M10.42 26.61c2.3,2.26 5.35,3.63 8.68,3.63 1.4,0 2.74,-0.24 4,-0.68 1.3,-0.46 2.52,-1.14 3.61,-2 1.59,-1.48 2.88,-3.28 3.77,-5.3 0.85,-1.95 1.32,-4.1 1.32,-6.36 0,-2.05 -0.39,-4 -1.09,-5.8 -0.48,-1.21 -1.1,-2.36 -1.85,-3.41 0.35,0.63 0.64,1.28 0.88,1.95 0.45,1.28 0.69,2.64 0.69,4.06 0,3.38 -1.39,6.48 -3.68,8.82 -2.31,2.37 -5.54,3.97 -9.18,4.35 -0.28,0.05 -0.55,0.08 -0.83,0.11 -0.14,0.01 -0.27,0.02 -0.41,0.02l-0.15 0.02 0.05 -0.01c-0.11,0 -0.22,0 -0.33,0 -2.49,0 -4.77,-0.9 -6.53,-2.39 -1.29,-1.09 -2.3,-2.5 -2.92,-4.1 0.66,2.78 2.07,5.23 3.97,7.09z"/>
   <path fill="url(#id2)" d="M26.61 21.38c2.26,-2.3 3.63,-5.35 3.63,-8.68 0,-1.4 -0.24,-2.74 -0.68,-4 -0.46,-1.3 -1.14,-2.52 -2,-3.61 -1.48,-1.59 -3.28,-2.88 -5.3,-3.77 -1.95,-0.85 -4.1,-1.32 -6.36,-1.32 -2.05,0 -4,0.39 -5.8,1.09 -1.21,0.48 -2.36,1.1 -3.41,1.85 0.62,-0.35 1.28,-0.64 1.95,-0.88 1.28,-0.45 2.64,-0.69 4.06,-0.69 3.39,0 6.48,1.39 8.82,3.68 2.37,2.31 3.97,5.54 4.35,9.18 0.05,0.28 0.08,0.55 0.11,0.83 0.01,0.14 0.02,0.27 0.02,0.41l0.05 0.46 -0.04 -0.18 0 0.15c0,2.49 -0.9,4.77 -2.39,6.53 -1.09,1.29 -2.5,2.3 -4.1,2.91 2.78,-0.65 5.23,-2.06 7.09,-3.96z"/>
   <path fill="url(#id3)" d="M5.19 10.42c-2.26,2.3 -3.63,5.35 -3.63,8.68 0,1.4 0.24,2.74 0.68,4 0.46,1.3 1.14,2.52 2,3.61 1.48,1.59 3.28,2.88 5.3,3.77 1.95,0.85 4.1,1.32 6.36,1.32 2.04,0 4,-0.39 5.79,-1.09 1.22,-0.48 2.37,-1.1 3.42,-1.85 -0.63,0.35 -1.28,0.64 -1.95,0.88 -1.28,0.45 -2.64,0.69 -4.06,0.69 -3.39,0 -6.48,-1.39 -8.82,-3.68 -2.37,-2.31 -3.98,-5.54 -4.35,-9.18 -0.05,-0.28 -0.09,-0.55 -0.11,-0.83 -0.01,-0.14 -0.02,-0.27 -0.02,-0.41l-0.05 -0.46 0.04 0.18 0 -0.15c0,-2.49 0.9,-4.77 2.39,-6.53 1.09,-1.29 2.5,-2.3 4.1,-2.92 -2.78,0.66 -5.24,2.07 -7.09,3.97z"/>
  </g>
 </g>
</svg>
