<?xml version="1.0" encoding="UTF-8"?>
<!DOCTYPE svg PUBLIC "-//W3C//DTD SVG 1.1//EN" "http://www.w3.org/Graphics/SVG/1.1/DTD/svg11.dtd">
<!-- Creator: CorelDRAW -->
<svg xmlns="http://www.w3.org/2000/svg" xml:space="preserve" width="377px" height="377px" version="1.1" shape-rendering="geometricPrecision" text-rendering="geometricPrecision" image-rendering="optimizeQuality" fill-rule="evenodd" clip-rule="evenodd"
viewBox="0 0 415.28 415.28"
 xmlns:xlink="http://www.w3.org/1999/xlink"
 xmlns:xodm="http://www.corel.com/coreldraw/odm/2003">
 <g id="Capa_x0020_1">
  <metadata id="CorelCorpID_0Corel-Layer"/>
  <g id="_584860246400">
   <path fill="white" d="M279.26 67.77c-30.15,-29.46 -69.9,-47.37 -113.46,-47.37 -18.19,0 -35.72,3.13 -52.15,8.91 -17.02,5.98 -32.89,14.83 -47.12,26.02 -20.84,19.31 -37.71,42.85 -49.25,69.25 -11.11,25.42 -17.28,53.52 -17.28,83.06 0,26.71 5.04,52.23 14.23,75.68 6.22,15.9 14.36,30.84 24.11,44.55 -4.53,-8.13 -8.37,-16.62 -11.46,-25.42 -5.88,-16.7 -9.05,-34.51 -9.05,-52.97 0,-44.26 18.18,-84.63 48.1,-115.25 30.21,-30.92 72.4,-51.89 119.91,-56.85l0.02 0c3.59,-0.6 7.2,-1.05 10.83,-1.35 3.62,-0.3 7.28,-0.45 10.95,-0.45 32.49,0 62.25,11.74 85.26,31.21 16.83,14.25 30.05,32.64 38.09,53.61 -8.61,-36.34 -26.93,-68.4 -51.73,-92.63z"/>
   <path fill="white" d="M136.02 347.51c30.15,29.46 69.9,47.36 113.46,47.36 18.19,0 35.72,-3.12 52.15,-8.9 17.02,-5.98 32.89,-14.83 47.12,-26.02 20.84,-19.31 37.71,-42.85 49.25,-69.25 11.11,-25.42 17.28,-53.52 17.28,-83.06 0,-26.71 -5.05,-52.24 -14.23,-75.68 -6.22,-15.9 -14.36,-30.84 -24.11,-44.55 4.53,8.12 8.37,16.62 11.46,25.42 5.88,16.7 9.05,34.5 9.05,52.97 0,44.26 -18.18,84.63 -48.1,115.25 -30.22,30.92 -72.42,51.9 -119.94,56.85 -3.58,0.59 -7.19,1.05 -10.83,1.35 -1.76,0.14 -3.53,0.26 -5.3,0.33l-1.94 0.2 0.6 -0.15c-1.43,0.05 -2.86,0.07 -4.3,0.07 -32.49,0 -62.25,-11.74 -85.26,-31.21 -16.83,-14.25 -30.05,-32.65 -38.09,-53.62 8.61,36.35 26.93,68.41 51.73,92.64z"/>
   <path fill="white" d="M347.51 279.26c29.46,-30.15 47.37,-69.9 47.37,-113.46 0,-18.19 -3.13,-35.72 -8.91,-52.15 -5.98,-17.02 -14.83,-32.89 -26.02,-47.12 -19.31,-20.84 -42.85,-37.71 -69.25,-49.25 -25.42,-11.11 -53.52,-17.28 -83.06,-17.28 -26.71,0 -52.24,5.04 -75.68,14.23 -15.9,6.23 -30.85,14.36 -44.56,24.12 8.13,-4.53 16.62,-8.38 25.43,-11.47 16.7,-5.88 34.51,-9.05 52.97,-9.05 44.26,0 84.63,18.18 115.25,48.1 30.92,30.21 51.9,72.42 56.85,119.94 0.59,3.58 1.05,7.19 1.35,10.83 0.15,1.76 0.26,3.53 0.33,5.31l0.63 6.04 -0.52 -2.35 0.01 1.94c0,32.49 -11.74,62.25 -31.21,85.25 -14.25,16.84 -32.65,30.06 -53.62,38.1 36.35,-8.61 68.41,-26.93 92.64,-51.73z"/>
   <path fill="white" d="M67.77 136.02c-29.46,30.15 -47.37,69.9 -47.37,113.46 0,18.19 3.13,35.72 8.91,52.15 5.98,17.02 14.83,32.89 26.02,47.12 19.31,20.84 42.85,37.71 69.24,49.25 25.43,11.11 53.53,17.28 83.07,17.28 26.71,0 52.23,-5.05 75.68,-14.23 15.9,-6.23 30.84,-14.36 44.55,-24.11 -8.12,4.52 -16.62,8.37 -25.42,11.46 -16.7,5.87 -34.51,9.05 -52.97,9.05 -44.26,0 -84.63,-18.18 -115.25,-48.1 -30.92,-30.22 -51.9,-72.42 -56.85,-119.94 -0.6,-3.58 -1.05,-7.19 -1.35,-10.83 -0.15,-1.77 -0.26,-3.54 -0.34,-5.32l-0.62 -6.03 0.52 2.35 -0.01 -1.94c0,-32.5 11.74,-62.25 31.21,-85.26 14.25,-16.83 32.65,-30.05 53.62,-38.09 -36.35,8.61 -68.41,26.93 -92.64,51.73z"/>
  </g>
 </g>
</svg>
